<svg xmlns="http://www.w3.org/2000/svg">
<path d="M108,304c.45.22,1.53.29,1.37-.16l-1.77-.55Z" transform="translate(-22.81 -21.5)"/>
<path d="M111.75,301.62a6.2,6.2,0,0,0-4-1.26c1.68.7.94.73,2.94,1.52.15.45-.68.66-1.34.5.45.21-.48.59.62,1,1.48-.35,1.63-1,.57-1.92A2.62,2.62,0,0,1,111.75,301.62Z" transform="translate(-22.81 -21.5)"/>
<path d="M116.81,260.11l-.21.27A.53.53,0,0,0,116.81,260.11Z" transform="translate(-22.81 -21.5)"/>
<path d="M116.41,234.13a.39.39,0,0,0,.41.25C116.69,234.21,116.57,234.07,116.41,234.13Z" transform="translate(-22.81 -21.5)"/>
<path d="M118,229.54a1.81,1.81,0,0,0-.1.27C118.09,229.7,118.17,229.59,118,229.54Z" transform="translate(-22.81 -21.5)"/>
<path d="M116.81,260.11l.56-.71C116.77,259.36,116.93,259.77,116.81,260.11Z" transform="translate(-22.81 -21.5)"/>
<path d="M108.05,295.46a1.12,1.12,0,0,0,.44.42,2.3,2.3,0,0,1-.16-.37Z" transform="translate(-22.81 -21.5)"/>
<path d="M118.28,271.59v.21a6.18,6.18,0,0,0,.73.2Z" transform="translate(-22.81 -21.5)"/>
<path d="M118.26,280.44c.07-.19-1.47-.34-2.15-.45.64.15.93.31,1,.49A6.26,6.26,0,0,0,118.26,280.44Z" transform="translate(-22.81 -21.5)"/>
<path d="M114.49,294.18l.19.26C114.62,294.37,114.57,294.26,114.49,294.18Z" transform="translate(-22.81 -21.5)"/>
<path d="M118.67,265.27a4.11,4.11,0,0,0,.56-.08A2,2,0,0,0,118.67,265.27Z" transform="translate(-22.81 -21.5)"/>
<path d="M33.9,42.73a1.93,1.93,0,0,0,.21-.17C34,42.62,33.86,42.68,33.9,42.73Z" transform="translate(-22.81 -21.5)"/>
<path d="M33.51,30.11l.15.05c.24-.18.47-.35.69-.53Z" transform="translate(-22.81 -21.5)"/>
<path d="M119.24,221.25l0,0C119.41,221.49,119.37,221.37,119.24,221.25Z" transform="translate(-22.81 -21.5)"/>
<path d="M104.6,147.6c-1.1,1.2-2.09-.83-3.22.82C101.93,148.14,104,148.87,104.6,147.6Z" transform="translate(-22.81 -21.5)"/>
<path d="M108.27,295.26a2.06,2.06,0,0,1,0-.35A.4.4,0,0,0,108.27,295.26Z" transform="translate(-22.81 -21.5)"/>
<path d="M101.38,148.42h0l-.11.17Z" transform="translate(-22.81 -21.5)"/>
<path d="M116.11,202.69a2.73,2.73,0,0,0-.64.28A2,2,0,0,0,116.11,202.69Z" transform="translate(-22.81 -21.5)"/>
<path d="M115.62,216.83l.17-.37A.62.62,0,0,0,115.62,216.83Z" transform="translate(-22.81 -21.5)"/>
<path d="M112.91,195.81c.09-.2.3-.3,0-.52l-.17.11C113,195.46,113.13,195.56,112.91,195.81Z" transform="translate(-22.81 -21.5)"/>
<path d="M111.71,188.36c-.11.06-.19.13-.28.19l.12.22Z" transform="translate(-22.81 -21.5)"/>
<path d="M47.86,60.12a8,8,0,0,1,1-1.08C48,59.77,47,59.11,47.86,60.12Z" transform="translate(-22.81 -21.5)"/>
<path d="M108.91,295.55c-.38-.09-.57-.17-.64-.29a1,1,0,0,0,.06.25A1.34,1.34,0,0,0,108.91,295.55Z" transform="translate(-22.81 -21.5)"/>
<path d="M100.78,197.35l0-1.19A2.94,2.94,0,0,0,100.78,197.35Z" transform="translate(-22.81 -21.5)"/>
<path d="M74.79,105.2,74.5,105C74.52,105.15,74.6,105.22,74.79,105.2Z" transform="translate(-22.81 -21.5)"/>
<path d="M100.06,192.78a2.8,2.8,0,0,0,1-.82,1.53,1.53,0,0,0-.42-.07Z" transform="translate(-22.81 -21.5)"/>
<path d="M48.82,59h0Z" transform="translate(-22.81 -21.5)"/>
<path d="M41.35,55c.61.92,1.91-.76,3-1.26,1.25.73-.85,1.38-1.42,2.36.92.34,2.81-.24,3.11.31-.25.23-.27.4-.7.53,1.84-.24,1.58,2.06,3.82,1.73a1.72,1.72,0,0,1-.33.4A14.77,14.77,0,0,1,51,57.29c.32.39,1.59,0,.61,1-.14-.28-.6,0-1,.13l.77.1c-1.29,1.49-.95-.21-2.11.61,1.09.48,3.08.55,3.09,1.51-1.45,1.2-1.57-1.15-2.34.66l-.11-1.4c-1.89,2.45-.25-.72-2.35,1.78.46,1.61,1.79.91,2.25,2.52,1.06-.3,1.2-1,2.27-1.26,2.81.83-2.92,4.11.07,4.09,1.28-.34,3.34-1.51,3,.17l-2,.83c.67,1.39,3-.94,2.73,1.18-.85.22-1.26-.62-1.34-.29-.82,1.79,1.42,0,1.86.63l-1.48,1.17c1.12,1.21,3.23,2,4.5,3.36-.53.21-1.19.26-1.45.93,2,1.41,2.35,4.28,2.55,6.72l1.82-.11c.09.17-.44.68-.82.66-.08,1,.91-.49,1.67-.46.35.36-.47,1-1,1,1.94.6,4.71,2.27,4,4.51l-.57,0c0,1.4,3.6-.42,2.84,1.34L68,88.54c.67,2.72,3.43,4.64,2.23,7.61,2.24-.73.29,2.85,3.26,1.51-.73,2.11-1.45,2-1.43,4.4.14.57,2.21-.14,2.83.35l-1.52.77,2,.09-1.6,1.36.68.41c0-.28.44-.84.9-1,1.15.61,0,2.82-.73,3.21L77,108.85c-.64.24-1,0-1.56-.14,2.14.45-1.52,1,.42,1.39.29-.31,1-.34,1.28-.46a2.34,2.34,0,0,0,.69,3l-1.15.3c.48,1.79,2.11,3.28,2.88,5.19.21-.89,2.14-1.54,2.56-1L80.6,118c1.17-.07.38-.85,1.94-.64.11.8-1.68,1.28-2.39,1.1l.94.62a8.19,8.19,0,0,1-1.47.38c1.18-.08-1,2.17,1,1.94l-.47.25c.8,1.88,1.67,2.53,2.38,4.05,1.45-.54,1.37.2,2.72.21,0,1.34-.62,3,0,4.39,1.08.71,1.33-.17,2.36-.05-1.3.56-.67,1.91-1.89,1.54a10.57,10.57,0,0,0,2.89,3.78c.47-.42.61-.76,1.11-.79.36.31-.24,1.08-.9,1.25l-.18-.06c2.81,1.76-2,6.83,1.35,7.85l-.17-.07,2.08,1.55c.05,1-1.19-.24-1.81.7,2.92,1.47.73,3.49,2.73,4.84-3.62,2.53,1.69,4.84-.41,7.42l.92-.36c1.06.24-.39.73-.52,1.14.73-.24.72-.75,1.31-.58a11.47,11.47,0,0,1,1.23,6.43c-.08,2.29-.42,4.64-.41,6.86.09,1.61,5.16-.19,3.3,2.27l-1.9-.18c2.81,2.71,1.26,6.46,3.65,9.22-.44-.11-1,0-1-.32-1.18.9.38,2.44,1.44,2.26,0,.5-.94.28-1.42.68-.65.79,2,1.36.73,1.94-.2.09-.46-.12-.58-.22.72.32.19,2,1.62,1.36-.52,1.29,1,2.13.31,3.22,1.79.33-.48,2.13,1.94,1.95-2.47.3-1.67,2.37-.4,2.94-.78-.14-.68.76-1.75.63a1.43,1.43,0,0,0,2,1.21c-2.72,2,2.85,2.81-.82,4.23a31.08,31.08,0,0,1,3.75,6.79c-2.48.23-.56-2.5-3.14-2.06,1.29,2,3.55,3,3.22,5.25-.27.59-1.11-.19-1.55-.33,1.29,2,.25,4.21,1.81,6a1.18,1.18,0,0,1-.71-.34c.12.37-.27.92.85.76l-.34-.34c1.56-.79,3.57,1.15,4.44,1.13-3.29-.31-.6,2-4.78,1.4a1.83,1.83,0,0,0,1.54.35c-.18.4-.61.56-1.5.27.75,1.3,1.9.7,2,1.94-.54,0-.78-.18-1.43-.24,1.12.52,2.25,1.05,1.89,2.14-.34,0-.75.13-.78-.18.35,1.78,3.13,2.81,2.28,4.88-2.42-.37-.73.75-2.77,1l.71,1,1-.51c0,.93,1.62,1.63,1,2.49l-.9-.62.53,1.71.7-1c1.14.86,2.59-.32,2.12,1-.23-.24,0,.94-1.13,1.52h0c.69.41,1.41.84,1,1.57-.65.23-2.29,0-2.71.18,1.75.32.64,2.15,2.52,2.59a4.23,4.23,0,0,0-1.74,0l1.42.28c-.42.47-.63.54-1.49.53-.17,1.32,2.57-.59,1.56,1-.13-.11-.33,0-.56-.28-.48,1.59,1.09,2.94.48,4.41-2,.53-.58-1.22-2.3-.64.5,2,2.71,4.11,2.31,6.12l.21-.38c2.94.16-1.38,1.54,0,2.49a2.63,2.63,0,0,0-1.3-.21c-.42,1.37.81,2.75,1.77,4.8l-.76-.24c-.65.81-.34,2.11-.68,3,.76.25.64.74,1.73.43-4.25,2.68,2.31,5.12-1.29,7.46,0-.28-.64-.68-.65-.45l.66,2c1.27-.13.77-.25,1.77-.66.75.27,1.33.86,1.32,1.36-.83-.93-2,0-2.76.34.39-.05.82.09,1.21.07-2.29,1,2.56.24,1,1.65l-.66-.1c.32.55,1.19,1.08,1,1.66-1.48.19-.67-.6-1.88-.68.06.82,2.74,1.72,1.24,2.41-.4-.37-.38-.87-.78-1.23-1.75.74-1.33.85-1.63,1.43l0-.05-.85,1.34.49-.33c3.79,1.2.61,2.1,3,3.62-2.31-1.48-1.37-.3-3-.5-.48.33-1,.83-1.49.65,1.3.72-1.12,1,.79,2-.54,0-.11.69-1.44.45.36.86.94-.13,1.61,0,1.73,1.43-2.42,2.87-.09,4.92.89,1.7,2.69,2.17,3.43,3.76-.91.42-1.91-.6-1.91-.6-.87.73-.79,1.35-.25,2.19a2.06,2.06,0,0,0-1.49.08c.07.63,1.91.62,1,1.35a11.82,11.82,0,0,1-2.08-.85c.41.77,1.32,1.59,1.72,2.4-1,.09-1.36-.62-1.94-.95.32.88.59,2.27,2,2.71l.59-.48c0,.32-1.28,0-1.53-.25-1.07-.86.64-1,1.18-1l.28.58c3.19-.18-.24-2.21,0-3.26l2.24.7-1.78-1.32c.62-.17,1.91-.2,2.2.37,1.2-.66-.75-.77.58-1.31a.35.35,0,0,1,.39.07l-.6-.83c.47.19,1.63,0,1.25.46,1.47-1.25-1.51-2.37.27-2.73l.13.13c-.6-2-1.66-.34-3.5-1.92l4.22-.63-1.67-.32c.08-.19.23-.57.9-.44-1.1-.82-.74.06-1.8-.44,1.6-.84-.52-2.65,2.17-2.69-1.26-.42-1,.84-1.87-.22,2.9-.11-.42-1.2,1-2,1.47.35.63,1.13,2,.34-2.48-.67.66-1.67.21-2.43-2-.14-.77-1.64-1.38-2.89.68.1,1.18-2.27,1.94-3.4l.34,0c-2-.28-1.6-1.45-2-2.32a3,3,0,0,1,2.22.71v-.82a1.64,1.64,0,0,1-1.21-1l1.51.23c-.06-1.09-1.74-2.2-.73-3.58-1.41-.08-3.94,1.07-4.87-.38.76-.05,2.07-.1,2.38.28-.1-.12-.63-.45-.31-.7l1.28.59c.57-.63-1.07-.33-1-.83,1.09,0,.78-.37,1.65-.3.1.13-.45.44,0,.63a2.63,2.63,0,0,1,1.67-1.48c-.62.05-1.46,0-1.6-.42-.09-1.07,1.3-.37,1.86-1-.76-.26,0-1-1.61-1,0-.32.76-.38,1.2-.51-.71-.55-.23-2.61-2-1.95l-.11.14s0-.05-.07-.09h0c-1.66-1.78.85-3.8.08-5.6H117c-.66-1.06-.45-2.39-1.66-3.11,0-.32,1-.8,1.61-.69-.44-.81-1.06-.87-.22-2.11,1,.79.83-.33.74.82.42-1.1,1.27-1.39-.28-2.46,1.42.31,1.71-.91,1.26-1.4l-.95.81a2.71,2.71,0,0,1-.05-1.59l1.85.17c2.08-2.36-4-3.73-.45-5.65-1.32-.49-.81,1.25-2.35.84.17-1,2.72-2.26,2.7-2.58.91-1.46-2.77-1.08-2.19-2.58-.64.24-2.37.55-3.06-.47.16-1,2.63-1.46,3.21-.87.07.24-.13.37-.35.38.26.31.58.71,1.25.26l-.66-.08c.63-.56.44-1.94,1.54-1.7-.69-.71-1.1-.24-1.39.36.83-1.37-.15-2,.37-3.41-.34.25-1.09.51-1.1.3.64-2-1.31-.75-1.71-2,.92-.84,2.4.05,1.44-1.2.6-.88,1.71-.34,2.28-.06-1.38-1.1.6-2.35.76-3.07l.59.59a1.37,1.37,0,0,1-.4-1l-1.26.5c.19-.4.16-.72.7-.77-.89-.3-2.14.51-3.38-.14.62-.56-.85-1.44.86-1.79-.44,1.63,1.71-.35,2.12,1a.78.78,0,0,1-.06-1,.48.48,0,0,1,.47.11c1.4-1.67-2-.49-2.14-2.06,1,.1,1.81-.55,1.57-.79,0,.64-1.59.48-2.4,0,.65-1.08-.68-1-.65-1.55l-.29.63c-1-.1-.92-.61-1.31-1.27.76-.14.59.57.9.29-1.79-.58,1.58-1.94.31-2.89.6-.57,1.82-.26,2.22-.75-1.41-1.06,1.17-1.47,0-2.62-1.26.53-.93.55-2.31-.19l1.17,2-2.06-1.11c0,.63,1,1.23.8,1.63-1.14-.51-.81-.48-1.86-.06,1.86-1.09-1.34-1.56-.14-2.71l3.24-.37c1.25-1.68-2-2.45-1.43-4.49l-.48.69c-1.32-.09-.34-1.17-.95-1.73a3.93,3.93,0,0,0,2.07-.89c-.8.14-.12-1.43-2.3-1.31l1.3-1.06c.37-1.66-3.33-1.35-3.18-2.9,1.24.28,1.9-.52,2.89.37-.07-.51.06-1-.69-.88.63-.4-1.66-1.18-.7-1.79-.51-.14-1.65,0-1.64-.61a1.3,1.3,0,0,1,.53-.08c-.53.08-.85-.77-2-.1,3.14-2.06-.95-4.24,1.72-6.06a18.49,18.49,0,0,1-1.37-3.26c.34,0,.54-.09.46.12.75-1.54-3.23-.29-2.4-2,1.59-1.11,1.09.65,1.66,0,3.48-.85-.83-1.78,1-3.21l.25.22c1.06-1-1.7-1.7-1.71-3a1.64,1.64,0,0,0,.53-.09,6.45,6.45,0,0,1-3.64-3.24c1.44.1.83.42,2.18-.11-.31-.52-2.21.63-2.82-.4.68-.52,1.16-1.46,2.62-1.89l.31,1c1.81-1-.36-1.35-.15-2l.85-.11c-.62-1.56-2.74-1.11-3-2.88l-.6.32c-2.3-.47,1-1.05-.76-1.64l2.06-.77a15.35,15.35,0,0,1-3.24-2.72c1.72.25,2.84,1.37,4,2-.13-.63-.66-2.07-1.78-2.14.27.19.86.39.59.71-1.84-.36-2.9-1.16-3.16-2.39,4.17-.8.24-3.44,3.17-5.15-2.07-1.78-.48-4.5-1.46-7-2.9,1.78-.3-.72-3.49.36-.38-.52-.39-.76-.19-.87l1.43-2.34c.82-.7.87.35,1.58.08-.12-1.36,1.22-.94,1.82-2-1.1.52-1.79,0-1.58-.82l-1.17,1.47c-2.27-1.27,2.23-2.37,0-3.66l1.19.26c-.89-.74-1-3.46-3.92-3.52.32-.28,1.12-.79,1.49-.45-.36-2.35-4.34-4-3.38-6.22l.84-.11c-.38-.33-1.72-.2-1.12-1,.33-.09.83-.11.81-.32-.35-.12-1.75-.59-1.49-1.3l1,.15c.23-2.5-3.27-2.5-4.49-4.05a3.69,3.69,0,0,0,2.39-3.78l.33-.09c-.68-2.59-3.5-3.45-5.34-5.31,1.84-2.41-1-5.16-.64-8-.25.52-1.75.71-2.15.42.21-.72-2.18-.73-.12-1.58l0,.21c1.81-1.3.8-2.14.47-3l-2.7,1.09c2.81-4-4.11-4.95-1.27-7.79-.9-.2-1.22-.84-2.13-1l1.41-.68a8.37,8.37,0,0,0-1.81-4L84,90.92c-.42-1-4.63.83-5.18,0l1.91-1.37c-1-1.68-.11-4.4-2.88-5.07.31-.14.93-.42,1.16-.19-.37-.84-.34-3.88-3-2,1.8-1-.83-1.85-2.14-2.29l1.41-.63c-2.14.22-2.62.46-3.7-.33,0-.35.93-.84.79-.31.2-1.24-1.63.08-1.53-1.34L72,77.22c-.42-.92-.83-.58-2.1-.46-.85-.22-.64-1.82.47-2.66-.8.32-2,.44-2-.27a1.34,1.34,0,0,1,1-.32c0-2-2.8-1.19-2.13-3a1.83,1.83,0,0,0,.67-.64,6,6,0,0,1,1,2.08c1.21-.74.86-1.8,3-2.09-1.35-.19-4.11-.21-4.11-1.45a2.6,2.6,0,0,1,.34-.38h.19c0-.28-.24-.39-.55-.44a1.63,1.63,0,0,0-.11-1c.92-.73-.13-1.39-.37-1.87-1.28.87-1.45.15-2.17,1.39.05-.13.21,0,.45.25.08,0,.15.12.26.11l-.13,0c.22.28.5.64.8,1.07-.89.07-1.69,0-1.28-.91-1,.31-2,.61-2.5.72,1.42-1.78,1.65-3.61,2.65-4.5-1.64-.89-2.63-2.91-5.62-2.13-.56-.18.4-.91.69-1.31.39.06.53.35,1,.23-1.13-.35-1.76-2.13-3.58-1.15.09-1.48,1.93-.52.73-1.65l.64-.18c.43-2.22-1.38-2.54-3.1-2.95s-3.37-.89-2.72-3.52a1.1,1.1,0,0,1-.34.76c-.42-2.15-2-3.57-3.43-5s-2.84-3-2.87-5.43c-.21-1.25-1.31-.55-2.52-.48l1.17-1.21-2.24.27c-2.12-.41,1.43-4.78-2-4.77l-.7.92c-.3-.73-2-1.43-.93-2.15-.21.07-1.06.55-.8-.05l.67-.56L37,32.11c-.42-1.5,2.81-2,1.61-3.75-.76-.39-3.36-.09-3.62.51a1.39,1.39,0,0,1-.56,1.54l-.8-.25c-2,1.55-4.4,2.83-4.69,5.3l2-.09-.72,1.09-.69-.72c-.54,1.18.48.8,1.29.66a2.64,2.64,0,0,0-.75,1.25L32.7,37c-.69.74-1.87.86-1.81,1.81,1.23-.3,1.41-1.83,2.57-1.6-.54,1.17-1.39,1.64-.19,1.53a1.59,1.59,0,0,1-1.26.63c1,0,1.25,1,2.5.38-.75,1.37,1.54,1.34-.4,2.81a3.81,3.81,0,0,1,2.56,0c-2.9,1,1.14,1.7-1.48,3.42,2.52-1,2.55,1.37,4.48,1.53-.21.07-.63.21-.59,0,.27.71-.23,1.36-.34,2,1.78-1.23,2.86-.62,4.3-.93-1.12,2-2.36,1.09-3.78,2.53,1.37-1.1,2.34.18,3.32-.93-.61,1.32-.14.84-1.36,2.2,2.24-1.52.74.24,2.41-.29-.48,1.6-1.88,1.71-.58,2.1C42.69,55.17,41.35,55,41.35,55Zm18.47,18.8h0l-.36-.4ZM61,75.6a3.66,3.66,0,0,0-.45-.84c.41-.35.92-.57,1-.37C61.21,74.48,61.23,75.08,61,75.6Zm6.57-9.7c.38.19.19.45-.06.66a2.84,2.84,0,0,0-.49-.43l-.18.07A4,4,0,0,1,67.58,65.9Z" transform="translate(-22.81 -21.5)"/>
<path d="M65.52,66.45s-.12,0-.17-.06a2.46,2.46,0,0,0-.18.37l.48-.16Z" transform="translate(-22.81 -21.5)"/>
<path d="M116.56,260.43l0-.05a.56.56,0,0,1-.22.1A1.67,1.67,0,0,1,116.56,260.43Z" transform="translate(-22.81 -21.5)"/>
<polygon points="50.24 81.86 50.59 81.68 50.2 81.66 50.24 81.86"/>
<path d="M111.21,272.62a1,1,0,0,0-.4.15A1.12,1.12,0,0,0,111.21,272.62Z" transform="translate(-22.81 -21.5)"/>
<path d="M110.68,277.83l-.58.72A2.48,2.48,0,0,0,110.68,277.83Z" transform="translate(-22.81 -21.5)"/>
<path d="M109.72,281.8a5.63,5.63,0,0,0,.66.11h0Z" transform="translate(-22.81 -21.5)"/>
<path d="M105.34,218.23a.27.27,0,0,0-.09-.15C104.91,217.75,105.06,218,105.34,218.23Z" transform="translate(-22.81 -21.5)"/>
<path d="M110.72,236.9a3.82,3.82,0,0,1-.78-.56C109.85,236.69,109.84,237,110.72,236.9Z" transform="translate(-22.81 -21.5)"/>
<path d="M100.77,197.48h0s0-.09,0-.13Z" transform="translate(-22.81 -21.5)"/>
<path d="M109.9,235.45a.6.6,0,0,0,0,.89C110,236.06,110.15,235.72,109.9,235.45Z" transform="translate(-22.81 -21.5)"/>
<path d="M107.5,299l-.09.18.25,0Z" transform="translate(-22.81 -21.5)"/>
<path d="M107.66,299.21l.15.24C107.83,299.35,107.82,299.26,107.66,299.21Z" transform="translate(-22.81 -21.5)"/>
<path d="M108.15,299.94l-.34-.49C107.79,299.6,107.72,299.78,108.15,299.94Z" transform="translate(-22.81 -21.5)"/>
<path d="M108.79,293.8l-.55-.11A2.58,2.58,0,0,0,108.79,293.8Z" transform="translate(-22.81 -21.5)"/>
<path d="M108.8,292.19c-.17.37-1.3.84-1,1.4l.44.1C107.43,293.35,109.7,292.64,108.8,292.19Z" transform="translate(-22.81 -21.5)"/>
<path d="M116.27,286l-.55,1.34c.62-.19,1.44-.45,1.54.19C119.17,285.89,115.9,287.77,116.27,286Z" transform="translate(-22.81 -21.5)"/>
<path d="M117.41,281.75c.23.76.86,0,1.2.1C118.09,281.34,118,281.22,117.41,281.75Z" transform="translate(-22.81 -21.5)"/>
<path d="M117.49,250.73h1.42C118.68,250.18,118.36,250.76,117.49,250.73Z" transform="translate(-22.81 -21.5)"/>
<polygon points="87.1 223.77 86.25 224.37 87.56 224.55 87.1 223.77"/>
<polygon points="96.89 219.63 97.11 219.86 96.53 218.94 96.89 219.63"/>
<path d="M113.29,189.46l-1.69.46C112,190.25,113.91,190,113.29,189.46Z" transform="translate(-22.81 -21.5)"/>
<path d="M107.26,167.7c.8-.43,1.21-1.18.29-1.37C107.54,166.85,107,167.49,107.26,167.7Z" transform="translate(-22.81 -21.5)"/>
<polygon points="65.35 81.11 66.08 81.28 65.27 80.71 65.35 81.11"/>
<path d="M27.46,99.91c.48.07,1.56,0,1.34-.18L27,99.61Z" transform="translate(-22.81 -21.5)"/>
<path d="M30.84,98.57a13,13,0,0,0-4.12-.33c1.76.22,1,.28,3.12.52.21.19-.59.34-1.26.31.47.07-.4.31.75.41,1.41-.26,1.46-.58.3-.92A6.07,6.07,0,0,1,30.84,98.57Z" transform="translate(-22.81 -21.5)"/>
<path d="M33.8,79.53l-.22.12A.34.34,0,0,0,33.8,79.53Z" transform="translate(-22.81 -21.5)"/>
<path d="M35,67.74c0,.09.23.13.39.13A.54.54,0,0,0,35,67.74Z" transform="translate(-22.81 -21.5)"/>
<path d="M37,65.75a.77.77,0,0,0-.13.12C37.05,65.82,37.14,65.78,37,65.75Z" transform="translate(-22.81 -21.5)"/>
<path d="M33.8,79.53l.58-.31C33.78,79.19,33.93,79.38,33.8,79.53Z" transform="translate(-22.81 -21.5)"/>
<path d="M26.43,95.94a1.36,1.36,0,0,0,.48.17.77.77,0,0,1-.19-.16Z" transform="translate(-22.81 -21.5)"/>
<path d="M35.22,84.75v.09l.74.09Z" transform="translate(-22.81 -21.5)"/>
<path d="M35.47,88.74a13.47,13.47,0,0,0-2.16-.17,2.73,2.73,0,0,1,1.06.2Z" transform="translate(-22.81 -21.5)"/>
<path d="M32.71,95.05l.22.11A2.25,2.25,0,0,0,32.71,95.05Z" transform="translate(-22.81 -21.5)"/>
<path d="M35.59,81.9l.55,0A3.26,3.26,0,0,0,35.59,81.9Z" transform="translate(-22.81 -21.5)"/>
<path d="M92.55,29.12l0,.27C92.58,29.24,92.58,29.12,92.55,29.12Z" transform="translate(-22.81 -21.5)"/>
<path d="M97.53,36.54l-.06.08c0,.3,0,.59,0,.87Z" transform="translate(-22.81 -21.5)"/>
<path d="M39.05,62.09h0C39.19,62.2,39.16,62.15,39.05,62.09Z" transform="translate(-22.81 -21.5)"/>
<path d="M39.09,39.44a13.1,13.1,0,0,1-1-1.79,8.76,8.76,0,0,0-1.08-1.94c.2.34.49,1,.87,1.72A19.61,19.61,0,0,0,39.09,39.44Z" transform="translate(-22.81 -21.5)"/>
<path d="M26.63,95.84a.33.33,0,0,1,0-.17C26.57,95.75,26.57,95.8,26.63,95.84Z" transform="translate(-22.81 -21.5)"/>
<path d="M37.06,35.71v0l-.13-.17Z" transform="translate(-22.81 -21.5)"/>
<path d="M38.23,53.55c-.27,0-.48.05-.68.08A3.8,3.8,0,0,0,38.23,53.55Z" transform="translate(-22.81 -21.5)"/>
<path d="M35.94,59.87l.21-.16C36,59.78,36,59.82,35.94,59.87Z" transform="translate(-22.81 -21.5)"/>
<path d="M36.08,50.23c.12-.08.34-.11.13-.23L36,50C36.23,50.08,36.33,50.13,36.08,50.23Z" transform="translate(-22.81 -21.5)"/>
<path d="M36.11,46.8l-.31.06.08.11Z" transform="translate(-22.81 -21.5)"/>
<path d="M82.46,30.08c.08.44.12.92.16,1.39C82.57,30.37,83.05,30,82.46,30.08Z" transform="translate(-22.81 -21.5)"/>
<path d="M27.3,95.94a1.87,1.87,0,0,1-.67-.1.31.31,0,0,0,.09.11A2.65,2.65,0,0,0,27.3,95.94Z" transform="translate(-22.81 -21.5)"/>
<path d="M23.86,50l.23-.54A.78.78,0,0,0,23.86,50Z" transform="translate(-22.81 -21.5)"/>
<path d="M58.52,29.19l.14-.18S58.57,29,58.52,29.19Z" transform="translate(-22.81 -21.5)"/>
<path d="M23.88,47.8A3.64,3.64,0,0,0,25,47.5a3.13,3.13,0,0,0-.4-.06Z" transform="translate(-22.81 -21.5)"/>
<path d="M82.62,31.49v0Z" transform="translate(-22.81 -21.5)"/>
<path d="M86.07,27.78c-.5,0-.2,2-.29,3.17-.6.59-.3-1.49-.52-2.53-.37.54-.64,2.41-.92,2.33a3.15,3.15,0,0,1,0-.88c-.39,1.62-1.18.09-1.64,2.12,0-.18-.05-.35-.06-.5.08,1,.09,2.06.08,2.79-.23,0-.43,1.29-.52,0,.14,0,.15-.5.22-.91l-.24.58c-.22-1.92.33-.67.33-2.08-.47.62-1,2.21-1.38,1.66-.06-1.86.84-.63.37-2.29l.55.71c-.42-2.95.33.21,0-2.95-.71-.54-.8,1-1.52.4-.17,1,0,1.54-.13,2.58-1,1.86-.76-4.72-1.54-2.23-.21,1.24-.32,3.61-.85,2.35l.22-2.12c-.69-.22-.45,3.05-1.16,1.61.15-.83.56-.69.46-.95-.44-1.68-.36,1.2-.72,1.19l0-1.88c-.75.27-1.61,1.6-2.45,1.92a4.28,4.28,0,0,0,0-1.71c-1.07.91-2.22-.31-3.17-1.47l-.45,1.6a1.76,1.76,0,0,1,0-1.05c-.37-.63-.07,1-.29,1.66-.23.1-.25-.95-.09-1.43-.75,1.35-2.12,2.86-2.75,1.08L67.7,30c-.53-.69-.84,3.27-1.28,1.74l.12-.28c-1.19-.77-2.66.61-3.42-1.9-.35,2.31-1.13-1.13-1.47,2.1-.57-1.66-.32-2.22-1.21-3.38-.25-.18-.57,2-.93,2.29l.14-1.69-.6,1.73,0-2-.34.4a2.59,2.59,0,0,1,.12,1.27c-.55.72-1.05-1.29-1-2.15l-1.27,1.32a3.77,3.77,0,0,1,.5-1.31c-.77,1.67.07-1.79-.63-.27a8,8,0,0,1-.19,1.35c-.17-1.06-.79-1.13-1.3-.75l.21-1.16c-.79-.39-1.81.37-2.73.24A4.29,4.29,0,0,1,52,30.3l.1-1.8c-.31,1.08.21.71-.32,2-.32-.25,0-2.05.28-2.61l-.49.57c0-.54.17-.81.28-1.48-.31,1.08-.5-1.88-1,0l0-.54c-.92-.13-1.42.43-2.19.42-.23,1.54-.47,1.16-.87,2.36-.5-.57-.94-1.86-1.63-1.83-.58.69-.33,1.28-.67,2.16.17-1.4-.52-1.37,0-2.32a3.4,3.4,0,0,0-2.26,1.09,3.86,3.86,0,0,1,0,1.33c-.22.19-.33-.66-.19-1.32l.07-.14a.84.84,0,0,1-.28.26.88.88,0,0,1-.38.07,1.32,1.32,0,0,1-.72-.26A11.49,11.49,0,0,1,40.2,26.8c-1.1-1.12-2.52-2.25-3-.85l.06-.14A10.52,10.52,0,0,0,36,27.14c-.81-.41.1-1.07-.75-2.13-.52,1.1-1.18.88-1.94.54s-1.58-.79-1.82,0c-1.85-2.51-3-2.67-4-2.59s-1.63.39-3.8-1.42l1.07,1.23c.2.41.11.4-.13.21s-.89-.82-1-.78c.76.85.88.59,1.42,1.49a6.6,6.6,0,0,1-.37,5,21.49,21.49,0,0,0-1.92,4.56c-.13.69,1.14,1.5,2.15,2.17s1.76,1.18.59,1.54c-.61-.37-1.22-.75-1.82-1.16a6.92,6.92,0,0,1,1,4.48,11,11,0,0,0,0,2,1.9,1.9,0,0,0,.75,1.12c-.42-.09-1-.1-1-.24-1.33.3-.08,1.14,1,1.16-.12.23-1,0-1.53.18-.78.3,1.69.79.37.95a.93.93,0,0,1-.53-.15c.64.21-.17.94,1.36.76-.74.55.66,1.06-.24,1.49,1.7.31-.83.94,1.58,1.06-2.5-.07-2,.94-.86,1.3-.75-.12-.78.3-1.82.15,0,.4.49.77,1.77.71-3,.7,2.38,1.51-1.45,1.87A12.71,12.71,0,0,1,27,56c-2.49-.08-.23-1.18-2.84-1.17,1,1,3.14,1.63,2.52,2.63-.34.25-1.08-.16-1.5-.26,1,1-.25,2,1.09,2.87a1.87,1.87,0,0,1-.67-.2c.07.18-.37.41.76.4L26,60.08c1.65-.26,3.42.75,4.29.79-3.24-.35-.83.88-4.92.34a3.19,3.19,0,0,0,1.5.26c-.22.17-.66.22-1.52,0,.61.64,1.81.44,1.78,1-.55,0-.76-.13-1.4-.2,1.06.31,2.12.62,1.65,1.1-.32,0-.76,0-.74-.13.15.84,2.82,1.46,1.77,2.37-2.37-.31-.79.3-2.84.31l.6.51,1-.19c0,.43,1.46.84.78,1.2l-.85-.33.38.81.79-.45c1.05.46,2.61,0,2,.56-.21-.12,0,.43-1.24.64h0c.65.22,1.34.45.82.76-.66.08-2.27-.1-2.71,0,1.72.24.46,1,2.29,1.31a10,10,0,0,0-1.73-.09l1.4.2A2.74,2.74,0,0,1,27.6,71c-.27.6,2.61-.15,1.48.55-.12-.06-.33,0-.54-.15-.59.7.87,1.39.17,2-2.07.17-.49-.58-2.25-.38.37,1,2.46,2,2,2.91l.23-.16c2.92.16-1.45.66-.08,1.15a5.08,5.08,0,0,0-1.3-.14c-.47.62.71,1.3,1.61,2.26L28.13,79c-.67.36-.39,1-.74,1.37.75.12.62.35,1.72.23C24.81,81.75,31.37,83,27.8,84c0-.13-.66-.32-.66-.22l.68.95a6.39,6.39,0,0,0,1.77-.3c.75.12,1.34.39,1.33.62-.84-.43-2,0-2.75.16.39,0,.82,0,1.21,0-2.27.47,2.57.1,1,.76l-.67,0c.34.25,1.23.49,1,.75-1.47.1-.68-.27-1.9-.3.09.38,2.79.77,1.32,1.1-.41-.16-.42-.39-.82-.56-1.74.36-1.3.41-1.57.68l0,0-.79.63.47-.16c3.84.5.69,1,3.21,1.63-2.38-.64-1.38-.12-3.05-.17a3.37,3.37,0,0,1-1.46.33c1.35.31-1.06.5.91.93-.54,0-.06.33-1.41.25.42.4.94-.09,1.61,0,1.84.61-2.23,1.41.29,2.29,1,.76,2.85.9,3.75,1.59a3.69,3.69,0,0,1-2-.19c-.79.38-.65.66,0,1a4.28,4.28,0,0,0-1.47.11c.14.29,1.95.19,1.16.57a20,20,0,0,1-2.16-.29c.5.34,1.5.68,2,1a5.29,5.29,0,0,1-2-.34,3.14,3.14,0,0,0,2.34,1.14l.53-.25c.07.14-1.28.07-1.55,0-1.16-.34.52-.49,1.06-.51l.34.25c3.16-.26-.51-1-.33-1.5l2.3.21-1.9-.52a4.64,4.64,0,0,1,2.22.07c1.13-.36-.82-.32.45-.63a.77.77,0,0,1,.39,0L32,94.7c.48.07,1.62-.06,1.29.15,1.32-.62-1.72-1,0-1.24l.14,0c-.77-.87-1.68-.09-3.66-.75L34,92.49l-1.69-.09c.06-.09.19-.27.86-.23-1.15-.34-.73,0-1.82-.15,1.54-.43-.71-1.2,2-1.28-1.28-.16-1,.41-1.88-.06,2.89-.11-.49-.54.84-.92,1.48.13.69.5,2,.11-2.51-.25.56-.76.08-1.1-2,0-.83-.73-1.49-1.29.67,0,1.11-1,1.84-1.56l.33,0c-2-.12-1.63-.65-2-1a5.76,5.76,0,0,1,2.23.32v-.37A1.92,1.92,0,0,1,34,84.39l1.51.11c-.08-.49-1.77-1-.76-1.62-1.41,0-3.93.46-4.87-.22a9,9,0,0,1,2.38.15c-.1,0-.63-.21-.3-.32l1.28.28c.56-.28-1.07-.16-1-.39,1.09,0,.78-.16,1.64-.12.11.06-.45.2,0,.29a2.81,2.81,0,0,1,1.68-.65c-.62,0-1.47,0-1.61-.21-.07-.49,1.31-.15,1.88-.43-.76-.13,0-.43-1.6-.46,0-.14.77-.16,1.21-.21-.71-.26-.19-1.18-1.92-.92l-.12.07-.07,0h0c-1.61-.85,1-1.71.26-2.54h.54c-.61-.5-.35-1.1-1.52-1.47,0-.14,1-.32,1.65-.25-.4-.38-1-.44-.11-1,.94.4.84-.11.69.4.48-.48,1.35-.58-.13-1.12,1.39.19,1.76-.35,1.35-.58l-1,.32c-.2-.26-.08-.49,0-.72l1.84.16c2.24-1-3.77-1.86,0-2.57-1.28-.28-.91.53-2.41.28.26-.46,2.9-.9,2.91-1,1-.62-2.68-.63-2-1.28-.66.08-2.4.13-3-.37.24-.46,2.75-.53,3.27-.23.05.11-.16.16-.38.15a1.28,1.28,0,0,0,1.23.18L35.92,68c.68-.21.62-.85,1.69-.68a1.18,1.18,0,0,0-1.42.08c1-.57,0-.92.69-1.51-.36.09-1.13.17-1.12.07.82-.88-1.24-.41-1.52-1,1-.33,2.38.16,1.56-.46a3.4,3.4,0,0,1,2.26.1c-1.25-.57.85-1,1.08-1.33l.53.3c-.31-.18-.3-.33-.3-.47l-1.31.15c.23-.17.24-.32.78-.31-.85-.19-2.17.11-3.34-.26.67-.22-.7-.71,1-.76-.6.71,1.75-.05,2,.56-.21-.12-.2-.26,0-.43a.78.78,0,0,1,.46.08c1.56-.67-2-.35-1.91-1.06,1,.1,1.86-.14,1.65-.26,0,.29-1.64.12-2.38-.16.77-.44-.56-.5-.47-.74l-.36.27c-1-.11-.85-.34-1.15-.66.76,0,.52.3.86.19-1.72-.38,1.79-.77.64-1.28.66-.22,1.83,0,2.29-.19-1.26-.57,1.35-.58.31-1.18a3.17,3.17,0,0,1-2.28-.24l.92,1-1.91-.64c0,.29.82.62.59.79A2.75,2.75,0,0,0,34,57.74c2-.36-1.14-.79.2-1.23l3.25.06c1.47-.67-1.65-1.24-.82-2.12l-.57.28c-1.29-.14-.17-.55-.69-.85a7.6,7.6,0,0,0,2.16-.25c-.81,0,.08-.65-2.09-.76l1.44-.38c.6-.71-3.09-.86-2.71-1.54,1.18.22,2-.08,2.79.39,0-.23.22-.44-.54-.45.69-.13-1.46-.66-.42-.86-.48-.1-1.62-.14-1.52-.4a2.83,2.83,0,0,1,.53,0c-.53,0-.72-.41-1.93-.2,3.41-.67-.22-2,2.7-2.57A4.37,4.37,0,0,1,35,45.28c.32,0,.54,0,.43.09,1-.62-3.13-.41-2-1.12,1.77-.35.95.39,1.62.17,3.58-.07-.48-.87,1.61-1.34l.21.12c1.22-.33-1.35-1-1.09-1.26l.54,0a4.22,4.22,0,0,1-2.93-1.64,7.9,7.9,0,0,0,2.16.66c-.2-.22-2.28-.5-2.68-1a9.05,9.05,0,0,1,3,.56l.08.29c1,.24,1,.19.75,0s-.65-.4-.48-.39l.86.36c-.28-.39-2.44-1.49-2.28-2l-.65-.32c-1.07-.78-.77-.7-.4-.54s.81.38,0-.31l2.17,1.38a16.18,16.18,0,0,1-2.5-3c1.61,1.63,2.43,2.61,3.39,3.45,0-.12-.16-.53-1.23-1.52.21.25.74.75.4.54-1.7-1.53-2.54-2.68-2.51-3.11,2.11,2,2.37,2.06,2.52,2s.17-.33,1.81,1.51a5.09,5.09,0,0,1-.44-.68c-.08-.26.36.11.77.5s.78.81.84.71c-2.44-3.78,0-.08-2.22-3.92,0-.2.15-.13.3.12q.89,1.2,1.59,2.34c.58,1.1.29.81.72,1.65a17.11,17.11,0,0,1,1.28,2.59c-.59-1.33-.78-1.9-.52-1.38-.24-.57-.51-1.14-.8-1.72-.27-1,.13-.17.44.61s.56,1.54.36.6c.09.37.18.75.29,1.13a1.5,1.5,0,0,1,0-.58c0-.26,0-.78-.07-2.16a11.34,11.34,0,0,1,.15,1.6c.12.22.18-.5.43-1,.13-.26.22-.49.39-.53s.48.12.62.56l-.21.81c.24-.21.59-1.48.7-.62-.06.34-.2.8-.12.86.15-.26.75-1.34.94-.83l-.37.89c.88,1.22,1.92-2,2.86-2.44-.35,2.4.36,3.3.71,3.75l-.06.34c1.17.46,2.32-1.73,3.55-2.54.36,2.72,2.2,1.38,3.16,3a4,4,0,0,1,.45-2.1c.21.52.9-1.59.63.62L54,41c0,2.2.57,1.68,1,1.78l.36-2.89c.69,4.33,3-1.28,3.26,2.56.33-.7.66-.66,1-1.37l-.14,1.56a1.88,1.88,0,0,0,2,.38l-.27,1.1c.51.14,1-4.44,1.47-4.5l0,2.34c.89,0,1.66,2.14,2.69.08,0,.34-.11,1-.26,1.09.42.09,1.54,1.68,1.57-1.53-.11,2.08.92.26,1.44-.63l-.15,1.53c.51-1.93.55-2.47,1.14-3,.12.21.06,1.24-.1.84.4.82.42-1.44.92-.6l-.25,1c.45.14.44-.39.75-1.52.31-.6.84.43.86,1.82.09-.84.39-2,.64-1.55a2.43,2.43,0,0,1-.15,1c.73,1.08,1.21-1.73,1.68-.21a4.17,4.17,0,0,0,.06.92c-.61-.06-1.1-.16-1-.27-.05,1.41.44,1.68,0,3.62.44-1,1.2-3.35,1.66-2.67a4.41,4.41,0,0,1,0,.49l-.06.16c.11.14.21,0,.32-.22.14.23.24.41.38.44,0,1.17.56.64.8.71,0-1.55.34-1.3.07-2.58,0,.11-.05.18-.22.24s-.08.07-.11.16l0-.14a4,4,0,0,1-.61.09c.22-.78.44-1.44.69-.57l.4-2.49c.28,2.17.91,3.36,1,4.69.77-.85,1.8-.55,2.3-3.45.22-.38.24.83.31,1.29-.12.29-.27.25-.34.66.43-.74,1.27-.27,1.39-2.3.53.92-.32,1.87.42,1.54l-.1.62c1.46,3.27,2.36-5.2,4-1a1.74,1.74,0,0,1-.2-.72c1.87,1.83,3.73-1.79,5.62,1.08.54.57.55-.73.83-1.73l.17,1.66.46-1.94c.7-1.43,1.5,4,2.35,1.33l-.18-1.11c.35.19,1.06-.72,1.07.57,0-.21,0-1.17.21-.59l.06.87.77-1.54c.69.59.09,3.46,1.07,3.57a6.49,6.49,0,0,0,.69-3.16c-.15,0-.4-.52-.47-1.39l.3-.48c-.11-2.56,0-5.2-.93-6.94l-.44,1.59L95.86,30l.44-.1c-.33-1.16-.42-.11-.56.6a5.07,5.07,0,0,0-.31-1.35L95,31.67c-.11-1,.13-2-.25-2.54-.19,1.15.36,2.23,0,3-.32-1.15-.3-2.1-.55-1.09a3.3,3.3,0,0,1,.07-1.38c-.22.81-.69.38-.76,1.75-.34-1.42-.89.41-1-2a4.8,4.8,0,0,1-.64,2c.33-2.93-.93-.14-.93-3.26-.24,2.63-1.16,1.21-1.7,2.68,0-.21.08-.63.13-.5-.33-.21-.45-1-.68-1.49,0,2.16-.49,2.67-.74,4-.46-2.08.19-2.54,0-4.54.06,1.75-.67,1.76-.5,3.21a8.08,8.08,0,0,1-.47-2.4c0,2.7-.29.46-.51,2.13-.48-1.33-.16-2.53-.64-1.7A3,3,0,0,1,86.07,27.78ZM74.23,32.35v0l.25-.08Zm-1,0a.85.85,0,0,0,.43.07c0,.53,0,1.09-.14,1C73.59,33.12,73.36,32.8,73.23,32.35Zm1.82,10.79c-.17.22-.21-.09-.23-.4a1.16,1.16,0,0,0,.3-.18l0-.19A6.57,6.57,0,0,1,75.05,43.14Z" transform="translate(-22.81 -21.5)"/>
<path d="M75.4,41.12s0-.1.07-.11,0-.26-.08-.35l-.08.48Z" transform="translate(-22.81 -21.5)"/>
<path d="M33.55,79.67l0,0-.22,0Z" transform="translate(-22.81 -21.5)"/>
<polygon points="36.88 7.02 36.84 7.42 36.96 7.08 36.88 7.02"/>
<path d="M28.17,85.22a1.67,1.67,0,0,0-.4.07A1.87,1.87,0,0,0,28.17,85.22Z" transform="translate(-22.81 -21.5)"/>
<path d="M27.8,87.64l-.56.34A1.76,1.76,0,0,0,27.8,87.64Z" transform="translate(-22.81 -21.5)"/>
<path d="M27,89.51l.67,0h0Z" transform="translate(-22.81 -21.5)"/>
<path d="M25.57,59.85a.12.12,0,0,0-.07-.07C25.2,59.6,25.32,59.72,25.57,59.85Z" transform="translate(-22.81 -21.5)"/>
<path d="M29.06,68.71a4.93,4.93,0,0,1-.73-.3C28.21,68.57,28.18,68.69,29.06,68.71Z" transform="translate(-22.81 -21.5)"/>
<path d="M23.83,50h0s0,0,0-.06Z" transform="translate(-22.81 -21.5)"/>
<path d="M28.36,68c-.31.15-.24.28,0,.4C28.44,68.29,28.6,68.14,28.36,68Z" transform="translate(-22.81 -21.5)"/>
<path d="M26.29,97.62l-.06.09a1,1,0,0,1,.25,0Z" transform="translate(-22.81 -21.5)"/>
<path d="M26.48,97.72l.18.1S26.65,97.73,26.48,97.72Z" transform="translate(-22.81 -21.5)"/>
<path d="M27.05,98l-.39-.21C26.66,97.89,26.61,98,27.05,98Z" transform="translate(-22.81 -21.5)"/>
<path d="M27,95.13l-.57,0Z" transform="translate(-22.81 -21.5)"/>
<path d="M26.84,94.38c-.12.18-1.2.45-.84.7l.44,0C25.61,95,27.79,94.55,26.84,94.38Z" transform="translate(-22.81 -21.5)"/>
<path d="M33.8,91.28l-.45.62c.6-.11,1.41-.25,1.55,0C36.69,91.16,33.56,92.09,33.8,91.28Z" transform="translate(-22.81 -21.5)"/>
<path d="M34.68,89.34c.28.34.87,0,1.21,0A1.15,1.15,0,0,0,34.68,89.34Z" transform="translate(-22.81 -21.5)"/>
<path d="M34.84,75.3l1.41.06C36.05,75.09,35.7,75.35,34.84,75.3Z" transform="translate(-22.81 -21.5)"/>
<polygon points="4.78 51.01 3.9 51.25 5.19 51.39 4.78 51.01"/>
<polygon points="14.85 49.57 15.05 49.68 14.54 49.24 14.85 49.57"/>
<path d="M37.48,47.42l-1.74.06C36.05,47.66,38,47.72,37.48,47.42Z" transform="translate(-22.81 -21.5)"/>
<path d="M35.76,39.47c.87.42,1.43.67.58.05C36.22,39.55,35.54,39.27,35.76,39.47Z" transform="translate(-22.81 -21.5)"/>
<polygon points="32.88 20.64 32.61 21.2 33.05 20.76 32.88 20.64"/>
</svg>