<svg xmlns="http://www.w3.org/2000/svg" viewBox="0 0 80 310" width="20" height="77"><path d="M40 309h2-2zm4-3a6 6 0 00-4 0l3 1-1 1s-1 0 0 0c2 0 2-1 1-2a3 3 0 011 0zm2-41zm1-26zm2-5zm-3 31l1-1-1 1zm-7 36a1 1 0 001 0zm9-25a6 6 0 001 0zm0 9l-2-1 1 1a7 7 0 001 0zm-2 14zm2-29a3 3 0 001 0 2 2 0 00-1 0zM35 24zm8-10h1zm8 212zm-2-74c-2 0-2-2-3 0h3zm-9 148zm6-148h-1zm4 55a3 3 0 00-1 1 2 2 0 001-1zm-2 14zm-1-21s1 0 0 0c0 0 1 0 0 0zm0-7zM36 47a8 8 0 011 0h-1zM40 301v-1a1 1 0 000 1zm-5-101v-1a3 3 0 000 1zm1-99zm-1 94a3 3 0 001 0 2 2 0 000-1zm2-148z"/><path d="M33 39l4 1-3 1 2 2c1 1 0 2 2 3a2 2 0 01-1 1 14 14 0 013-1v2l-1-1 1 1-3-1c1 1 3 2 2 3-2 0 0-2-2-1l1-1h-3v4h3c1 2-5 2-3 3s4 1 3 2h-2c-1 1 3 1 1 2l-1-1c-1 1 1 1 1 2h-1l2 5h-2c1 3 0 5-1 8l1 1h-1 2l-2 1c2 1 3 4 2 6l-1-1c-1 2 3 2 2 3-1 2 0 5-2 8 2 0-1 2 2 3l-3 3 2 1h-1l1 1-2 1 1 1a1 1 0 011-1c1 1-1 3-2 3l1 2h-1c2 1-2 0 0 1h1v3h-1v6h3-2l2 1h-3l1 1-1-1c1 1-2 2 0 3h-1l1 5 2 1-1 4 2 1-2 1a11 11 0 001 4h1l-1 1c2 2-4 6-1 8l1 2h-2c3 2 0 4 2 5-4 2 0 6-3 8h1v1l1-1c1 5-1 9-2 14 0 2 5 1 3 3l-2-1c2 4 0 7 2 10h-1c-2 1 0 2 1 2l-2 1c-1 1 2 2 1 2h-1c1 0 0 2 1 1v4c2 0-1 2 2 2-3 0-2 2-1 3h-2a1 1 0 002 2c-3 1 2 3-1 4a34 34 0 012 7c-2 0 0-2-2-2 1 2 3 3 2 5h-1l1 6a1 1 0 01-1 0l1 1v-1c1-1 3 2 4 2-3-1-1 2-5 1a2 2 0 002 0h-2l2 2h-2c2 1 3 1 2 2h-1c1 2 3 3 2 5l-3 1 1 1h1l1 2h-1v1l1-1c1 1 3 0 2 2l-1 1 1 2h-3c2 0 1 2 3 2a4 4 0 00-2 0l1 1h-1c-1 1 2 0 1 1v4h-2l2 6c3 0-2 1 0 2a3 3 0 00-1 0c-1 1 0 3 1 5l-1 3h2c-5 3 2 5-2 8v-1 2l2-1 2 2h-3 1c-2 1 3 0 1 2h-1l1 1h-2c1 1 3 1 2 2l-1-1-2 1v2-1c4 1 1 3 3 4h-3-1c1 1-1 2 1 2l-2 1h2c2 1-2 3 0 5l4 3h-2a1 1 0 000 2 2 2 0 00-1 0c0 1 2 1 1 2a10 10 0 01-2-1l2 2-2-1 2 3 1-1h-2l1-1v1c4-1 0-2 0-4l2 1-2-1h3v-2h1c1-1-2-2 0-3l-3-1 4-1h-2l1-1h-2c2-1-1-3 2-3h-2c3 0 0-1 1-2h2c-2 0 1-1 0-2-2 0-1-2-2-3l2-3h1c-2-1-2-2-2-3a3 3 0 012 1v-1a2 2 0 01-1-1h1c0-1-2-2-1-3h-5 3l-1-1 2 1-1-1 1-1v1a3 3 0 012-1l-2-1 2-1-1-1h1c-1-1 0-3-2-2-2-2 1-4 0-6l-1-3h1v-3l1 1v-2c1 0 2-1 1-2l-1 1a3 3 0 010-1h2c2-2-4-4 0-6l-3 1 3-2c1-2-2-2-2-3l-3-1 3-1v1h1l1-2-1 1 1-4-2 1c1-2-1-1-1-3 1 0 2 1 1-1h3c-2-1 0-2 1-3v1a1 1 0 010-1h-1l-3-1c1 0-1-1 1-1-1 1 2-1 2 1a1 1 0 010-1c2-2-2-1-1-2l1-1h-2c1-1-1-1-1-2v1l-1-2 1 1c-2-1 1-2 0-3l3-1c-2-1 1-1 0-2l-2-1v2l-1-1v2h-2c2-1-1-2 0-3h4c1-2-2-3-1-5l-1 1v-2a4 4 0 002-1l-2-1 1-1c1-2-3-2-3-3h3l-1-1v-1l-1-1-2-1c3-1 0-4 3-5a16 16 0 01-1-4c1-1-3 0-2-2h2c3 0-1-2 1-3l1 1c1-1-2-2-1-4a6 6 0 01-3-4l2 1-2-1 3-2v2c2-1 0-2 0-2h1c-1-2-3-2-3-4l-1-1 3-1a15 15 0 01-3-3l3 3-1-3 1 1-3-3c4 0 1-3 4-4-1-2 1-5 1-7-4 1 0-1-4-1v-1l2-1h2l2-1c-1 0-2-1-1-2l-2 1c-2-1 3-1 1-3l1 1c0-1 0-4-2-5h1c1-2-3-5-1-7h1c-1 0-2 0-1-1h1s-2-1-1-2l1 1c1-2-2-3-3-5a4 4 0 004-3c0-3-2-4-3-7 2-1 1-5 2-7l-2-1c1 0-1-1 1-1s1-2 1-2l-2-1c4-2-2-6 2-7l-2-2h2a8 8 0 000-4h1l-4-2 2-1c0-1 2-3 0-5h1c0-1 1-3-2-3 2 0 1-2 0-3h1l-3-2h1c1-1-1-1-1-2l1 1-1-2c-1-1 0-2 2-2l-2-1a1 1 0 011 0c1-2-2-2 0-4a2 2 0 001 0 7 7 0 010 3h3c-1-1-3-3-2-4v-1c2 0 1-2 1-2h-3 1v2c-1-1-2-1-1-2h-2l4-3c0-1 0-3-3-4l1-1 1 1c-1-1 0-3-2-3l1-1h1c3-3-5-5-1-9a1 1 0 01-1 1c2-4-2-9 1-12 1-2 0-2-1-2l1-1-2-1c-1-1 4-3 2-5l-1 1v-3s-1 0 0 0h1l-2-2c1-2 4 0 4-2l-3-2-2 1v-1c-3 0-5-1-7 1l1 1-1 1v-1l1 1a3 3 0 00-2 1l3 1h-3 3c-1 1-2 1-1 2a2 2 0 01-1-1l1 2c-1 1 1 2-2 2l2 2c-3-1 0 2-3 2 3 0 1 2 3 4l-1-1-1 2 4 2c-2 1-3-1-5-1 2 0 2 2 3 2a4 4 0 01-2 1c3 0 0 0 2 1l-2 1h-2zm5 26zm0 3a4 4 0 000-1h1l-1 1zm11-5h-1a4 4 0 011 0z"/><path d="M47 62a3 3 0 00-1 0h1zm-1 203zM35 99h1l-1-1v1zm6 178a1 1 0 00-1 0 1 1 0 001 0zm0 6h-1a3 3 0 001 0zm-1 4zm-3-65v-1 1zm4 19a4 4 0 01-1-1l1 1zm-6-41zm5 39a1 1 0 000 1v-1zm-1 65v1zm0 1h0zm1 0zm0-6h-1a3 3 0 001 0zm0-2l-1 2s2-1 1-2zm7-7l-1 2h2c1-2-2 0-1-2zm0-4h2-2zm0-31h2-2zm-7-6l-1 1h1v-1zm10-3l-1-1 1 1zm-1-52h-2 2zm-2-22v-2 2zm2-68l1 1-1-1zm26-46l1-1-1 1zm2-3a15 15 0 00-3 2l3-1-1 1h1c1-1 0-2-1-1a6 6 0 011-1zm-7-14zm-6-8h1a1 1 0 00-1 0zm1-3zm5 11v-1 1zm3 15zm1-13zm2 3a14 14 0 00-2 1 3 3 0 011 0l1-1zm1 6zm-5-11a4 4 0 001 0h-1zm-62 9zm-8-4v-1zm62-19c1-1 1-1 0 0zM41 2a7 7 0 010 2 6 6 0 000 3V2zm32 54zM41 7zm18 15zm2 5zm-5-6zm-2-2zM17 44l-1-1 1 1zm56 12zM46 28zm-14 2zm13-3a4 4 0 001-1zM16 43z"/><path d="M15 48l-1-3 2 2-1-3a3 3 0 010 1v-2a3 3 0 011 0 36 36 0 01-2-2s-1-1 0 0h1-1c2 1 1 1 1 2v-2l2 2-1-1 2 3v-2l-1-2c-1-2 3 4 2 1l-1-2 2 2-1-2 1 1-1-1 2 1v-3a5 5 0 001 1h3l-1-2 1 1-1-2 1 2c0-2-1-4 1-3 1 1-2-2 0-2v1c1 0 1-2 3-1-1-2 2 0 0-3 1 1 1 2 3 2l-1-2 1 1-1-2 1 2v-1a3 3 0 01-1 0h2v-1a4 4 0 011 1v-1a8 8 0 01-1-1h2l1 1 1-2a5 5 0 01-2-2l1 1-1-1 2 1h-1l1 1c0-1 2 1 1-1l1-1-1-2h1a2 2 0 001 0l-2-2 2 2a7 7 0 00-1-2 10 10 0 010-1l1 1c-1-1 0 0 0 0s1 2 1 0v1a21 21 0 010-3v1s0 1 0 0v3l1-1v-1 1a7 7 0 010 2l1-2-1 1h1a2 2 0 001 0l-1 1h2l-2 1h2l1 1h2c-2 1-1 2 0 1l-2 1h2c-2 2 3-1 0 2a11 11 0 014 0c-2 2-1 0-3 1h3l-1 1c1 0 1 2 3 1a2 2 0 01-1 1l1-1h-1l4-2-4 4a4 4 0 002-1l-1 1 2-1-2 1h2c0 1 3-1 2 1l-2 2 1-1h2-1l1 1v-1l2-1-1 1h1l-2 2 3-1a11 11 0 00-2 1l1-1a3 3 0 01-1 1h2a2 2 0 01-1 0l2 1-2 1 3 1c2-2-1 1 0 1a7 7 0 00-1 0l3 1h-1v2l2-1c-3 3 3 0 1 3h-1 1a7 7 0 001-1l1-1-2 2 1-1c-1 2 2-1 2 0l-1 1 1-1-1 1h1l-1 1-1 1v1-1c4-2 1 1 4-1l-3 2a4 4 0 01-1 1h1c0 1 1 1-1 1l2-1c1 0-1 3 1 2l4-2a4 4 0 01-2 1l1 1a5 5 0 00-1 1h1l-2 1 2-1a7 7 0 01-2 1 3 3 0 003 0v-1l-1 1v-1h1c2-2-1 0-1-1l2-1-2 1a5 5 0 012-2s-1 1 0 0h-1l1-1c1-1-2 0 0-1l-3 2 3-3-2 1 1-1-2 1 1-2-1 2c2-2-1 0 0-2l1-1c-2 2 0-1 0-1l-2 1 1-3-2 1a7 7 0 012-1l-1-1a2 2 0 01-1 1l2-1-2-1-4 3a10 10 0 012-1l1-1-1 1 1-1a3 3 0 011-2l-1 1 1-1h-1-2c-1 1 0-1-1-2h1-2l1-1-1-1h0l1-2-1 1 2-1c1-2-4 1-2-2l-1 2 1-3-2 1a6 6 0 01-3 1l3-2v1a2 2 0 001-1h-1l1-1a1 1 0 00-1 1v-2l-1 1h-2l1-1a4 4 0 012-1v-2h1-1l-1 1a1 1 0 011-1 28 28 0 01-3 2v-1l2-1c1-2-1 1-2 0l1-1-1 1h-1v1h-2l1-1v-1l2-1c-2 0 0-2-1-1a4 4 0 01-2 1h2l-2 1h1a3 3 0 00-2 1c2-1-1 0 0-1l2-2c1-1-2 0-2-1v1h-1a9 9 0 002-2l-2 1 1-1-3 1 2-2h-1c1 0-1 1 0 0l-2 1a4 4 0 011-1l-2 1c2-2-1-1 1-3a3 3 0 01-2-1h1l-2 1 1-1c3-2-1 0 1-2h-1l-1-1a5 5 0 01-3 1l2-2-2 2a22 22 0 011-3v-2l-2 1v1c-2 2 0-2-1 0l1-3-2 2a6 6 0 012-3h-1s0-1 0 0l-2 2V3h-1l-1-3a1 1 0 00-1 1v6a20 20 0 00-1-2V2c-1 1-1-1-1-2v4c0 2 0 1-1 0s0-1 0 0V3c-1 1-2 2-2 5a4 4 0 010-2l-1 3-2 2v-1 2l-1-1v1-1l-1 2 1 2a4 4 0 010 1l-3-2h-1l1 4c-3-2-2 0-4 0a5 5 0 011 1s1 2 0 0h-2l2 2c-4-2-1 3-4 0l1 2-1-1-1 1-1-1c-1 0 3 3 2 4l-1-2c-1 1-3 0-2 2v-1c-1 0-2-1 0 2-2-2-1 0-1 1l-1-1 2 2h-1v1 0h-1v1a3 3 0 010-1c-2 0 0 2-1 1a5 5 0 00-1 0l1-1-2-2v2h-1-1l2 2a3 3 0 010-1v1l2 2-4-3c0 1-1 2 1 4l-1-1v2l-1-1v-1c-3-1 1 6-2 3a2 2 0 010 1c-2-1-1 3-4 1l1 2-1-1v2c1 1-3-3-2 0l1 1H3s0 1 0 0l-1-1 1 2-3-3a8 8 0 001 3l1 1v1l5 5-1-1 1 1v-1a5 5 0 001 1l-1-2 1 2-1-2h1a3 3 0 010 1v-1l2 1a5 5 0 01-1-2c1 2 1 0 3 2-2-2 0-1-1-3l1 1h1a16 16 0 01-2-3l3 3-2-3a10 10 0 012 2l-1-2 1 1a3 3 0 011 2zm6-10h-1 1zm0-1l-1-1 1 1zm-8-7a1 1 0 000 1h1l-1-1zM14 32zm56 9h-1zM32 31zm36 17zm1 2zm1 2v-1zM53 34c-1 0 0 0 0 0zm7 3c0 1 0 1 0 0zm-14-9zm13 9h0zm14 20h1zm1 0z"/><path d="M74 57zm-1-2l-1 1 1-1zm-1 0v1-1zm4-6l1-1-1 1zm0-2l1-1a1 1 0 00-1 1zm-8-9l1-1-1 1zm-7 2v1l1-1h-1zm7-7zM55 18l-1 1 1-1zm-7-7c0-1 0-2-1-1l1 1zm-24 9v-1 1z"/></svg>