<svg xmlns="http://www.w3.org/2000/svg">
<path d="M70.38,334.58c.48.15,1.54.05,1.33-.37l-1.82-.29Z" transform="translate(-29.9 -25.24)"/>
<path d="M73.71,331.67a6.08,6.08,0,0,0-4.09-.72c1.74.48,1,.61,3.1,1.13.21.42-.58.75-1.25.68.47.15-.39.67.75.89,1.4-.57,1.45-1.28.28-2A2.59,2.59,0,0,1,73.71,331.67Z" transform="translate(-29.9 -25.24)"/>
<path d="M76.09,289.76l-.21.27A.49.49,0,0,0,76.09,289.76Z" transform="translate(-29.9 -25.24)"/>
<path d="M76.79,263.8a.39.39,0,0,0,.39.29C77.06,263.9,77,263.75,76.79,263.8Z" transform="translate(-29.9 -25.24)"/>
<path d="M78.73,259.35c0,.09-.08.17-.12.26C78.78,259.51,78.87,259.41,78.73,259.35Z" transform="translate(-29.9 -25.24)"/>
<path d="M76.09,289.76l.56-.7C76.06,289,76.22,289.42,76.09,289.76Z" transform="translate(-29.9 -25.24)"/>
<path d="M69.28,325.94a1.19,1.19,0,0,0,.48.37,2,2,0,0,1-.19-.35Z" transform="translate(-29.9 -25.24)"/>
<path d="M77.68,301.18v.21a6.39,6.39,0,0,0,.74.17Z" transform="translate(-29.9 -25.24)"/>
<path d="M78.06,310c.06-.2-1.48-.25-2.15-.32.63.1.94.25,1.06.42A7.17,7.17,0,0,0,78.06,310Z" transform="translate(-29.9 -25.24)"/>
<path d="M75.5,323.91l.21.24C75.64,324.09,75.58,324,75.5,323.91Z" transform="translate(-29.9 -25.24)"/>
<path d="M78,294.89a2.6,2.6,0,0,0,.54-.08A1.91,1.91,0,0,0,78,294.89Z" transform="translate(-29.9 -25.24)"/>
<path d="M65,49.37a2.43,2.43,0,0,0,.27,0C65.08,49.32,65,49.3,65,49.37Z" transform="translate(-29.9 -25.24)"/>
<path d="M72.64,39.24l.08.14c.3,0,.58,0,.87,0Z" transform="translate(-29.9 -25.24)"/>
<path d="M80.61,251.22l0,0C80.76,251.47,80.73,251.35,80.61,251.22Z" transform="translate(-29.9 -25.24)"/>
<path d="M78.74,176.82c-1.37.86-1.78-1.35-3.29-.07C76.05,176.62,77.86,177.88,78.74,176.82Z" transform="translate(-29.9 -25.24)"/>
<path d="M69.48,325.71a1.45,1.45,0,0,1,0-.36A.4.4,0,0,0,69.48,325.71Z" transform="translate(-29.9 -25.24)"/>
<path d="M75.45,176.75h0l-.14.13Z" transform="translate(-29.9 -25.24)"/>
<path d="M79.48,232.55a2.79,2.79,0,0,0-.67.2A1.78,1.78,0,0,0,79.48,232.55Z" transform="translate(-29.9 -25.24)"/>
<path d="M77.45,246.49l.2-.35A.58.58,0,0,0,77.45,246.49Z" transform="translate(-29.9 -25.24)"/>
<path d="M77.23,225.35c.12-.19.33-.25.12-.51l-.19.08C77.37,225,77.48,225.13,77.23,225.35Z" transform="translate(-29.9 -25.24)"/>
<path d="M77.15,217.83c-.12,0-.21.1-.31.14l.08.24Z" transform="translate(-29.9 -25.24)"/>
<path d="M65.6,72.25A7.84,7.84,0,0,1,67,71.91C65.89,72,65.51,70.91,65.6,72.25Z" transform="translate(-29.9 -25.24)"/>
<path d="M70.15,325.92c-.39,0-.58-.1-.67-.21a1.25,1.25,0,0,0,.09.25A1.31,1.31,0,0,0,70.15,325.92Z" transform="translate(-29.9 -25.24)"/>
<path d="M65.1,225.17l.21-1.19A2.84,2.84,0,0,0,65.1,225.17Z" transform="translate(-29.9 -25.24)"/>
<path d="M65.83,126.25l-.18-.27C65.61,126.08,65.66,126.18,65.83,126.25Z" transform="translate(-29.9 -25.24)"/>
<path d="M65.05,220.43a2.66,2.66,0,0,0,1-.68,1.6,1.6,0,0,0-.39-.14Z" transform="translate(-29.9 -25.24)"/>
<path d="M67,71.91h0Z" transform="translate(-29.9 -25.24)"/>
<path d="M63.38,64c-.05,1.13,2,.54,3.13.78.57,1.37-1.49.63-2.52,1.09.53.85,2.38,1.51,2.3,2.14-.33,0-.45.17-.87,0,1.6.91.07,2.67,2.08,3.72a1.64,1.64,0,0,1-.5.14,14.07,14.07,0,0,1,2.78-.16c0,.51,1.27,1,0,1.14,0-.31-.49-.34-.91-.48l.58.53c-1.9.48-.66-.73-2.06-.73.61,1,2.18,2.26,1.64,3.06-1.86.16-.62-1.87-2.28-.81l.72-1.24c-2.94.94.2-.75-2.93.11-.55,1.63.94,1.83.39,3.45,1,.37,1.53-.12,2.56.25,1.85,2.31-4.68,1.81-2.21,3.51,1.24.44,3.59.62,2.35,1.82L65.48,82c-.21,1.58,3,.9,1.6,2.55-.82-.29-.69-1.24-.94-1-1.66,1.07,1.19.76,1.19,1.58l-1.87.17c.3,1.68,1.64,3.53,2,5.39-.55-.11-1.13-.42-1.7,0,.93,2.35-.23,5-1.34,7.27l1.61.86c0,.2-.73.37-1,.16-.61.88,1,0,1.65.47.11.5-.92.66-1.4.34,1.36,1.56,2.94,4.43,1.22,6.07L66,105.5c-.65,1.28,3.29,1.44,1.8,2.62l-.29-.22c-.69,2.77.78,5.82-1.64,7.94,2.31.4-1,2.74,2.2,2.91-1.59,1.59-2.17,1.14-3.24,3.37-.14.59,2,.88,2.36,1.61l-1.69,0,1.78,1-2,.54.44.69a1.41,1.41,0,0,1,1.24-.55c.76,1.07-1.17,2.63-2,2.66l1.43,2.54c-.68,0-.91-.48-1.35-.81,1.73,1.35-1.77.25-.19,1.49.38-.17,1,.09,1.35.12-1,.62-1,2-.59,3.08l-1.17-.19c-.29,1.89.58,4,.57,6.1.54-.76,2.55-.6,2.75,0l-1.78.26c1.1.4.67-.65,2,.17-.2.79-2,.54-2.61.09l.63,1c-.53.06-.82-.17-1.5-.22,1.11.39-1.78,1.67.15,2.23L64,144c0,2.12.61,3.08.71,4.8,1.54,0,1.2.71,2.45,1.22-.49,1.27-1.69,2.68-1.55,4.21.77,1.07,1.31.31,2.22.79-1.4.08-1.26,1.61-2.27.83a10.9,10.9,0,0,0,1.45,4.65c.57-.25.82-.54,1.3-.39.23.42-.58,1-1.25.9l-.15-.11c2.12,2.59-4.05,6.05-1.11,8.1l-.15-.11L67.23,171c-.23,1-1.06-.59-1.92.15,2.36,2.3-.31,3.67,1.26,5.57-4.12,1.51.34,5.25-2.28,7.27l1-.12c1,.5-.55.62-.77,1,.75-.06.87-.57,1.4-.25,1.21,4.36-1.35,9-2.18,13.53-.25,1.64,5,.88,2.74,3l-1.82-.57c2.2,3.29,0,6.77,1.87,10-.42-.19-1-.19-1-.51-1.31.7,0,2.53,1,2.53-.12.51-1,.13-1.51.45-.77.69,1.7,1.7.39,2.08-.21.06-.42-.19-.53-.31.64.44-.14,2.08,1.37,1.64-.71,1.22.7,2.32-.19,3.3,1.7.61-.79,2.09,1.61,2.26-2.48-.06-2,2.15-.81,2.91-.75-.25-.76.68-1.8.39a1.44,1.44,0,0,0,1.78,1.51c-2.94,1.64,2.42,3.22-1.37,4.17a33.67,33.67,0,0,1,2.89,7.33c-2.47-.06-.27-2.59-2.86-2.46,1,2.21,3.17,3.47,2.6,5.68-.33.58-1.07-.31-1.5-.5,1,2.21-.17,4.3,1.19,6.26a1.11,1.11,0,0,1-.67-.41c.08.39-.35.91.77.85l-.31-.38c1.62-.64,3.42,1.51,4.28,1.57-3.22-.62-.79,2-4.86,1a1.79,1.79,0,0,0,1.5.5c-.22.38-.65.51-1.51.13.62,1.39,1.81.88,1.8,2.15-.54,0-.76-.25-1.4-.38,1.07.63,2.14,1.26,1.69,2.33-.33-.06-.75.07-.75-.25.19,1.84,2.86,3.1,1.86,5.12-2.37-.56-.77.7-2.81.83l.62,1.07,1-.44c0,.94,1.48,1.77.82,2.59l-.85-.7.41,1.77.76-1c1.06.95,2.58-.13,2,1.14-.21-.26,0,.94-1.21,1.45h0c.66.46,1.35.94.85,1.64-.65.19-2.26-.12-2.7,0,1.72.45.5,2.22,2.33,2.78a4.22,4.22,0,0,0-1.72-.12l1.39.38c-.44.44-.65.51-1.51.44-.24,1.33,2.59-.44,1.49,1.14-.11-.13-.32-.06-.53-.32-.57,1.58.91,3,.24,4.49-2,.45-.51-1.26-2.24-.75.39,2.08,2.51,4.29,2.05,6.31l.22-.38c2.91.25-1.42,1.52,0,2.53a2.57,2.57,0,0,0-1.29-.25c-.45,1.39.75,2.82,1.68,4.9l-.74-.25c-.66.83-.36,2.15-.69,3,.74.25.63.75,1.71.44-4.22,2.76,2.33,5.15-1.18,7.59,0-.28-.66-.68-.66-.45l.71,2c1.27-.18.76-.28,1.74-.72.76.25,1.34.82,1.35,1.33-.85-.91-2,0-2.73.44.39-.08.81.06,1.21,0-2.24,1.09,2.54.15,1,1.63l-.66-.07c.34.54,1.23,1,1,1.63-1.46.26-.68-.58-1.89-.6.09.83,2.79,1.61,1.34,2.37-.41-.35-.42-.85-.83-1.2-1.71.84-1.27.93-1.54,1.54l0-.06-.76,1.41.46-.37c3.82,1,.72,2.11,3.23,3.48-2.38-1.33-1.37-.21-3-.3-.45.37-1,.91-1.43.76,1.34.65-1,1.12.92,2-.53,0,0,.71-1.38.57.43.86.92-.21,1.59-.15,1.84,1.31-2.18,3.14.34,5,1,1.63,2.85,1.91,3.77,3.43-.85.52-2-.4-2-.4a1.45,1.45,0,0,0,0,2.23,2,2,0,0,0-1.46.26c.15.62,2,.4,1.17,1.23a10.17,10.17,0,0,1-2.15-.6c.5.73,1.5,1.45,2,2.21-.92.22-1.41-.44-2-.71.43.86.86,2.22,2.34,2.47l.52-.55c.07.31-1.26.17-1.54-.06-1.16-.72.5-1.07,1-1.11l.35.54c3.12-.59-.53-2.19-.36-3.29l2.28.44-1.9-1.11c.59-.24,1.86-.42,2.21.12,1.12-.8-.82-.69.43-1.38a.39.39,0,0,1,.4,0l-.69-.76c.48.14,1.61-.15,1.28.33,1.3-1.4-1.73-2.21,0-2.75l.14.12c-.79-1.91-1.67-.17-3.65-1.59l4.11-1L75,318.08c.06-.2.18-.59.85-.52-1.15-.73-.72.13-1.81-.28,1.51-1-.74-2.62,1.92-2.86-1.27-.33-1,.92-1.86-.09,2.86-.32-.5-1.16.8-2.05,1.48.25.71,1.09,2,.2-2.5-.49.53-1.69,0-2.42-2,0-.85-1.58-1.52-2.81.67.07,1.06-2.32,1.77-3.47l.33,0c-2-.2-1.64-1.39-2.07-2.24a3,3,0,0,1,2.23.63l0-.81a1.64,1.64,0,0,1-1.23-.95l1.51.19c-.1-1.08-1.79-2.15-.81-3.54-1.4-.06-3.89,1.14-4.84-.31.76-.06,2.06-.13,2.37.25-.1-.13-.63-.44-.31-.7l1.28.57c.55-.63-1.07-.32-1-.82,1.08,0,.77-.38,1.63-.32.1.13-.44.45,0,.63a2.57,2.57,0,0,1,1.64-1.5c-.62.06-1.46,0-1.6-.39-.09-1.08,1.29-.39,1.84-1-.75-.25,0-.94-1.6-.94,0-.32.76-.39,1.2-.51-.72-.55-.24-2.6-2-1.95l-.11.14s0-.06-.07-.09h0c-1.63-1.8.87-3.79.16-5.59h.54c-.63-1.07-.39-2.4-1.56-3.15,0-.32,1-.77,1.62-.64-.42-.82-1-.91-.15-2.11,1,.82.84-.29.7.84.46-1.07,1.32-1.33-.17-2.46,1.39.38,1.74-.83,1.32-1.33l-1,.76a2.65,2.65,0,0,1,0-1.58l1.82.25c2.19-2.22-3.81-3.91-.13-5.62-1.28-.57-.88,1.2-2.37.69.23-1,2.83-2.09,2.83-2.4,1-1.4-2.67-1.26-2-2.72-.65.19-2.38.39-3-.69.23-1,2.71-1.27,3.24-.64,0,.24-.15.36-.37.36.24.32.52.74,1.22.34l-.65-.13c.66-.51.57-1.89,1.64-1.58-.63-.76-1.07-.31-1.4.26.93-1.31,0-2,.62-3.37-.35.22-1.11.42-1.11.21.78-2-1.24-.85-1.54-2.17,1-.76,2.37.24,1.52-1.08.66-.82,1.72-.19,2.26.12-1.27-1.2.79-2.28,1-3l.53.63a1.33,1.33,0,0,1-.31-1l-1.3.38c.23-.38.23-.7.77-.7-.86-.37-2.16.33-3.33-.43.65-.51-.73-1.52,1-1.71-.56,1.58,1.73-.19,2,1.14a.76.76,0,0,1,0-1,.45.45,0,0,1,.45.15c1.53-1.53-2-.67-1.93-2.24,1,.19,1.84-.38,1.63-.63,0,.63-1.62.32-2.37-.25.74-1-.58-1.08-.49-1.61l-.35.6c-1-.19-.85-.69-1.17-1.39.76-.06.53.63.86.38-1.72-.76,1.75-1.77.59-2.84.65-.51,1.82-.07,2.26-.52-1.27-1.19,1.32-1.32.26-2.59-1.3.39-1,.45-2.26-.44l.94,2.09-1.91-1.33c0,.64.83,1.33.61,1.71-1.07-.63-.74-.57-1.82-.25,2-.89-1.16-1.7.15-2.72h3.23c1.43-1.52-1.68-2.65-.89-4.62l-.56.64c-1.28-.25-.19-1.21-.72-1.83a3.88,3.88,0,0,0,2.14-.63c-.8,0,.06-1.43-2.1-1.58l1.41-.89c.57-1.58-3.09-1.77-2.74-3.29,1.18.45,1.93-.25,2.78.76,0-.51.2-1-.55-1,.68-.31-1.47-1.39-.45-1.87-.47-.21-1.6-.26-1.52-.83a1.3,1.3,0,0,1,.53,0c-.53,0-.73-.88-1.92-.37,3.35-1.59-.29-4.35,2.59-5.74a16,16,0,0,1-.83-3.42c.33.06.54,0,.43.18,1-1.39-3.11-.81-2-2.4,1.74-.82,1,.83,1.61.32,3.55-.25-.51-1.89,1.56-3l.21.25c1.2-.82-1.37-2-1.13-3.28a1.48,1.48,0,0,0,.54,0,6.39,6.39,0,0,1-3-3.86c1.39.38.74.57,2.15.31-.21-.56-2.27.19-2.67-.94.75-.38,1.41-1.21,2.92-1.33l.09,1.07c2-.56-.08-1.38.25-2l.86.06c-.29-1.64-2.44-1.64-2.31-3.41l-.64.19c-2.14-.95,1.19-.83-.4-1.77l2.15-.32a15.17,15.17,0,0,1-2.52-3.35c1.61.63,2.44,2,3.4,2.78,0-.63-.18-2.14-1.25-2.46.21.25.74.57.41.82-1.7-.76-2.55-1.77-2.52-3,4.19.18,1-3.29,4.27-4.23-1.57-2.22.63-4.43.36-7-3.25.95-.1-.76-3.45-.57-.22-.6-.16-.83.05-.89l2-1.85c1-.44.74.57,1.49.51.25-1.32,1.41-.57,2.3-1.45-1.2.19-1.72-.44-1.27-1.2l-1.54,1.07c-1.79-1.83,2.8-1.62,1-3.47l1.06.58c-.63-.95,0-3.52-2.7-4.44.39-.17,1.3-.4,1.55,0,.38-2.29-2.9-5.07-1.25-6.86l.81.17c-.24-.43-1.54-.73-.72-1.27.34,0,.82.16.87,0-.29-.22-1.44-1.12-1-1.69l.92.48c1.06-2.24-2.26-3.41-2.83-5.27a3.71,3.71,0,0,0,3.56-2.65l.35,0c.28-2.6-2-4.4-3-6.8,2.61-1.5,1.07-5.06,2.52-7.46-.43.37-1.87,0-2.12-.48.49-.56-1.67-1.55.54-1.47l0,.2c2.17-.43,1.59-1.58,1.65-2.49l-2.89-.14c4.19-2.37-1.57-6.18,2.19-7.48-.72-.57-.71-1.27-1.44-1.84l1.55,0a8.14,8.14,0,0,0,.21-4.32l1.11.39c.09-1.1-4.47-1.38-4.57-2.39l2.32-.31c0-1.92,2-3.87-.11-5.77.33,0,1,.09,1.1.4.06-.9,1.56-3.5-1.61-3.17,2.06,0,.19-2-.72-3l1.53.16c-2-.88-2.48-.91-3-2.13.2-.29,1.22-.25.84.13.79-1-1.45-.75-.64-1.92l1,.43c.11-1-.41-.91-1.55-1.46-.61-.62.39-1.88,1.77-2-.84-.13-2-.68-1.57-1.26a1.29,1.29,0,0,1,1,.24c1-1.66-1.77-2.47-.27-3.61a1.87,1.87,0,0,0,.91-.2A6.65,6.65,0,0,1,76.51,94c1.4,0,1.65-1.07,3.59-.22-1.06-.86-3.36-2.32-2.69-3.36a2.58,2.58,0,0,1,.48-.14l.16.11c.14-.24,0-.45-.23-.66a1.7,1.7,0,0,0,.43-.86c1.16-.12.63-1.22.68-1.75-1.54,0-1.29-.65-2.56,0,.11-.09.18.1.25.45a.46.46,0,0,0,.16.23l-.14,0c0,.35.08.81.1,1.32-.78-.42-1.43-.86-.58-1.44-1-.28-2-.58-2.48-.75,2.15-.72,3.31-2.12,4.63-2.32-.86-1.62-.57-3.82-3.45-4.85-.38-.46.82-.53,1.28-.7.29.27.24.59.66.73-.74-.92-.28-2.73-2.3-3,.92-1.16,1.86.66,1.53-.94l.62.22c3.24-3.14-5.14-5.13-1-8.6a1.16,1.16,0,0,1-.71.41c1.84-4-1.7-8.2,1.23-12.11.59-1.11-.7-1.24-1.68-1.93l1.66-.23-1.9-1.17c-1.39-1.66,4.07-2.84,1.44-4.94l-1.11.26c.21-.75-.65-2.38.63-2.24-.2-.08-1.15-.26-.57-.55h.86l-1.47-1.86c.64-1.42,3.43.25,3.62-1.83-.33-.78-2.51-2.22-3.09-1.94,0,.31-.54.8-1.41.81l-.45-.71c-2.54-.14-5.15-.71-6.94,1l1.55,1.22L66.09,42,66,41c-1.16.57-.14.94.57,1.36a2.5,2.5,0,0,0-1.37.5l2.43,1.2c-1,.14-2-.54-2.53.25,1.13.57,2.24-.52,3,.41-1.16.57-2.1.4-1.11,1.09a1.57,1.57,0,0,1-1.37-.33c.79.61.33,1.61,1.68,1.93-1.43.59.36,2.05-2.05,2,.58.2,1.89,1.08,2,1.64-2.88-1-.18,2.08-3.27,1.8,2.59.76,1.13,2.72,2.57,4.07-.21-.08-.63-.23-.49-.35-.22.75-1,1-1.5,1.45,2.14.11,2.63,1.28,4,1.91-2.07.91-2.52-.57-4.51-.29,1.74,0,1.73,1.61,3.18,1.3a4.42,4.42,0,0,1-2.4,1c2.68.14.45.66,2.1,1.25-1.33,1-2.52.25-1.71,1.38C64.32,65,63.38,64,63.38,64ZM68,90.64h0l-.09-.55Zm0,2.24a4.17,4.17,0,0,0,.06-1c.53-.08,1.08,0,1,.23C68.73,92,68.42,92.54,68,92.88Zm10.67-4.72c.21.35-.09.47-.4.52a2.76,2.76,0,0,0-.19-.62l-.19,0A3.78,3.78,0,0,1,78.64,88.16Z" transform="translate(-29.9 -25.24)"/>
<path d="M76.62,87.52s-.1-.08-.11-.14a2.69,2.69,0,0,0-.35.21l.48.12Z" transform="translate(-29.9 -25.24)"/>
<path d="M75.84,290.08l0-.05a.56.56,0,0,1-.22.1A1.67,1.67,0,0,1,75.84,290.08Z" transform="translate(-29.9 -25.24)"/>
<polygon points="35.16 98.52 35.55 98.51 35.21 98.32 35.16 98.52"/>
<path d="M70.7,302.45a.79.79,0,0,0-.39.16A1.28,1.28,0,0,0,70.7,302.45Z" transform="translate(-29.9 -25.24)"/>
<path d="M70.41,307.77l-.54.75A2.63,2.63,0,0,0,70.41,307.77Z" transform="translate(-29.9 -25.24)"/>
<path d="M69.69,311.86a4.8,4.8,0,0,0,.66.07h0Z" transform="translate(-29.9 -25.24)"/>
<path d="M67.16,246.89a.33.33,0,0,0-.07-.16C66.78,246.36,66.91,246.61,67.16,246.89Z" transform="translate(-29.9 -25.24)"/>
<path d="M71,266.19a3.86,3.86,0,0,1-.73-.61C70.12,265.92,70.1,266.19,71,266.19Z" transform="translate(-29.9 -25.24)"/>
<path d="M65.07,225.3h0a.66.66,0,0,1,0-.14Z" transform="translate(-29.9 -25.24)"/>
<path d="M70.25,264.68a.62.62,0,0,0,0,.9C70.34,265.29,70.49,265,70.25,264.68Z" transform="translate(-29.9 -25.24)"/>
<path d="M69.18,329.58l-.06.2.24,0Z" transform="translate(-29.9 -25.24)"/>
<path d="M69.36,329.8l.19.22C69.55,329.92,69.53,329.83,69.36,329.8Z" transform="translate(-29.9 -25.24)"/>
<path d="M69.94,330.47l-.39-.45C69.54,330.18,69.5,330.37,69.94,330.47Z" transform="translate(-29.9 -25.24)"/>
<path d="M69.83,324.17l-.56-.06A2.94,2.94,0,0,0,69.83,324.17Z" transform="translate(-29.9 -25.24)"/>
<path d="M69.66,322.52c-.13.4-1.19,1-.83,1.54l.44.05C68.44,323.86,70.6,322.89,69.66,322.52Z" transform="translate(-29.9 -25.24)"/>
<path d="M76.48,315.59,76.05,317c.59-.25,1.39-.57,1.53,0C79.34,315.27,76.26,317.4,76.48,315.59Z" transform="translate(-29.9 -25.24)"/>
<path d="M77.3,311.3c.28.74.86,0,1.19,0C78,310.86,77.81,310.75,77.3,311.3Z" transform="translate(-29.9 -25.24)"/>
<path d="M77,280.42l1.4.06C78.15,279.91,77.82,280.48,77,280.42Z" transform="translate(-29.9 -25.24)"/>
<polygon points="39.76 249.36 38.89 249.92 40.18 250.17 39.76 249.36"/>
<polygon points="49.69 245.76 49.89 246 49.37 245.06 49.69 245.76"/>
<path d="M78.52,219.15l-1.72.19C77.11,219.73,79.05,219.79,78.52,219.15Z" transform="translate(-29.9 -25.24)"/>
<path d="M76.54,196.79c.86-.25,1.41-.89.56-1.27C77,196,76.32,196.53,76.54,196.79Z" transform="translate(-29.9 -25.24)"/>
<polygon points="49 104.41 49.58 104.86 49.1 104.01 49 104.41"/>
<path d="M105.3,83.27c.41-.24,1.23-.92,1-.92l-1.5,1Z" transform="translate(-29.9 -25.24)"/>
<path d="M107.28,80.36a15,15,0,0,0-3.4,2.28c1.49-.92.94-.44,2.7-1.55.27,0-.28.58-.83,1,.41-.24-.16.44.8-.19,1-1,.85-1.27-.23-.78A6.1,6.1,0,0,1,107.28,80.36Z" transform="translate(-29.9 -25.24)"/>
<path d="M99.6,66.19l-.1.21C99.58,66.31,99.61,66.24,99.6,66.19Z" transform="translate(-29.9 -25.24)"/>
<path d="M94.19,57.93c.08,0,.24-.06.37-.16A.58.58,0,0,0,94.19,57.93Z" transform="translate(-29.9 -25.24)"/>
<path d="M94.69,55.37a1,1,0,0,0,0,.15C94.76,55.39,94.81,55.3,94.69,55.37Z" transform="translate(-29.9 -25.24)"/>
<path d="M99.6,66.19l.28-.56C99.41,66,99.63,66,99.6,66.19Z" transform="translate(-29.9 -25.24)"/>
<path d="M102.5,81.34a1.47,1.47,0,0,0,.46-.19,1,1,0,0,1-.23,0Z" transform="translate(-29.9 -25.24)"/>
<path d="M103.47,68.65l0,.06.62-.41Z" transform="translate(-29.9 -25.24)"/>
<path d="M105.77,71.08A14.32,14.32,0,0,0,104,72.31a3.15,3.15,0,0,1,.93-.53C105.17,71.6,105.43,71.37,105.77,71.08Z" transform="translate(-29.9 -25.24)"/>
<path d="M106.93,76.9l.23-.06Z" transform="translate(-29.9 -25.24)"/>
<path d="M102.23,66.58a4.42,4.42,0,0,0,.41-.37C102.49,66.33,102.36,66.46,102.23,66.58Z" transform="translate(-29.9 -25.24)"/>
<path d="M39.75,75.22,39.59,75C39.66,75.13,39.72,75.23,39.75,75.22Z" transform="translate(-29.9 -25.24)"/>
<path d="M32.17,71.23v-.09l-.48-.72Z" transform="translate(-29.9 -25.24)"/>
<path d="M94.29,51.74l0,0C94.46,51.72,94.41,51.71,94.29,51.74Z" transform="translate(-29.9 -25.24)"/>
<path d="M70.42,27.25a6.67,6.67,0,0,1,0,2.44,5.93,5.93,0,0,0,.16,2.46C70.49,31.35,70.9,28.07,70.42,27.25Z" transform="translate(-29.9 -25.24)"/>
<path d="M102.6,81.15a.21.21,0,0,1-.09-.1C102.5,81.13,102.53,81.16,102.6,81.15Z" transform="translate(-29.9 -25.24)"/>
<path d="M70.6,32.15v0l.05.16Z" transform="translate(-29.9 -25.24)"/>
<path d="M89.12,46.84a5.16,5.16,0,0,0-.47.48A4.33,4.33,0,0,0,89.12,46.84Z" transform="translate(-29.9 -25.24)"/>
<path d="M90.73,52.3l.08-.23C90.74,52.2,90.72,52.26,90.73,52.3Z" transform="translate(-29.9 -25.24)"/>
<path d="M85.72,46.08c0-.13.2-.28,0-.23l-.13.14C85.75,45.89,85.86,45.86,85.72,46.08Z" transform="translate(-29.9 -25.24)"/>
<path d="M83.93,43.87l-.21.24.12,0Z" transform="translate(-29.9 -25.24)"/>
<path d="M46.47,69.24c-.32-.3-.65-.65-1-1C46.22,69.07,46.12,69.64,46.47,69.24Z" transform="translate(-29.9 -25.24)"/>
<path d="M103.18,80.8a2.24,2.24,0,0,1-.58.35l.13,0A5.61,5.61,0,0,0,103.18,80.8Z" transform="translate(-29.9 -25.24)"/>
<path d="M76.2,53.61l-.1-.5A.61.61,0,0,0,76.2,53.61Z" transform="translate(-29.9 -25.24)"/>
<path d="M62.18,55.18l0,.2C62.28,55.38,62.28,55.32,62.18,55.18Z" transform="translate(-29.9 -25.24)"/>
<path d="M75.07,52.2a4.2,4.2,0,0,0,.67-.86,2.45,2.45,0,0,0-.34.21Z" transform="translate(-29.9 -25.24)"/>
<path d="M45.5,68.23h0Z" transform="translate(-29.9 -25.24)"/>
<path d="M45.29,73c.39-.24-1-1.7-1.66-2.68.08-.78,1.1,1,1.88,1.74-.07-.63-1-2.25-.76-2.34a3,3,0,0,1,.54.68c-.7-1.49.78-.7-.15-2.54a3.05,3.05,0,0,1,.36.36c-.68-.76-1.33-1.56-1.77-2.14.14-.15-.5-1.23.37-.24-.11,0,.21.47.42.83l-.19-.58c1.32,1.38.18.69,1.05,1.79-.06-.73-.67-2.25-.1-2,1.21,1.41-.17.94,1.18,2l-.82-.27c2.11,2.08-.36,0,1.85,2.28.84,0,0-1.19.81-1.16-.54-.9-1-1.17-1.53-2.06-.47-2,3.49,3.19,2.45.85-.65-1.07-2.09-2.94-.94-2.27L49.49,67c.61-.23-1.64-2.55-.25-1.87.43.71.07.84.3,1,1.38,1-.53-1.11-.29-1.32l1.24,1.4c.32-.65,0-2.15.34-2.87a4.56,4.56,0,0,0,1.1,1.3c.11-1.29,1.63-1.1,3-.85l-.8-1.43c.07,0,.59.45.73.74.66.23-.66-.78-1-1.36.07-.21.8.52,1,1-.43-1.42-.67-3.34,1-2.49l.22.44c.81.15-1.79-2.82-.44-2l.13.27c1.27-.2,1.12-2.1,3.38-.88-1.47-1.8,1.49,0-.67-2.37,1.54.73,1.81,1.27,3.18,1.44.27,0-1.14-1.69-1.17-2.13l1.17,1.21-.95-1.54,1.56,1.3-.11-.5a2.64,2.64,0,0,1-1-.74c-.23-.84,1.56.13,2.17.74l-.3-1.72a3.62,3.62,0,0,1,.72,1.18c-.83-1.6,1.32,1.19.56-.27a7.66,7.66,0,0,1-.92-1c.89.55,1.29.16,1.28-.43l.77.88c.74-.32.7-1.51,1.29-2.09a4.78,4.78,0,0,1-2-1.93l1.35,1.17c-.69-.88-.66-.28-1.41-1.45.36-.08,1.6,1.26,1.9,1.79l-.19-.7c.4.35.54.61,1,1.1-.69-.88,1.75.77.52-.73l.4.35c.59-.58.4-1.29.8-1.85-1.12-1.06-.69-1-1.46-2,.35,0,.84.08,1.28.12a2.36,2.36,0,0,0,.6,0c.12,0,.09,0,.12,0s.05,0,.05,0c-.45-.64-.88-1-1.46-1.69,1,1,1,.78,1.6,1.62a6.94,6.94,0,0,0-.44-1.62A10.33,10.33,0,0,1,68.75,45c0-.28.44.39.77,1l.06.15c-.38-1.14.33-.41.78.46s.72,1.8.36,0l0,.18c-.1-.65-.17-1.34-.21-2.06.14.2.19,1.38.44,2.4-.19-1.55-.06-1.58,0-1.4s.16.52.18-.69c.21,3.09.17,2.79.25,2.25s.18-.7,0,1.11L71.6,47c.15-1.34,0,.85-.07,1.17.12-1.07.1-1.28.2-2s.37.1.28,1a6.73,6.73,0,0,1-.61,2.31c-.17.21,2.7-4.69,1.57-2.37-.36.51-.72,1-1.06,1.56.66-.9.79-.71.82-.57s0,.15.14.15,0,0,.11,0a1.14,1.14,0,0,0,.26.09,2.17,2.17,0,0,0,.7,0c-.37.2-.8.54-.87.44-.86,1,.55.79,1.39.12,0,.23-.73.64-1.08,1.08-.44.69,1.72-.54.79.38a1,1,0,0,1-.49.24c.6-.27.37.72,1.45-.36-.27.82,1.08.27.61,1.12,1.47-.88-.14,1.12,1.78-.32-2,1.53-1,1.88,0,1.38-.65.39-.45.69-1.32,1.25.23.23.78.18,1.73-.66-1.92,2.34,2.63-.54-.1,2.11a11.22,11.22,0,0,1,3.94.41C79.87,57,81,54.9,79,56.56c1.32,0,3.27-.94,3.33.08-.12.38-.91.58-1.28.79,1.32,0,.85,1.4,2.37,1.14a2.08,2.08,0,0,1-.62.3c.15.06-.07.49.79-.23l-.33.08c1.12-1.21,3-1.69,3.7-2.21-2.66,1.83-.16,1.09-3.57,3.34a3.71,3.71,0,0,0,1.28-.79c-.07.25-.39.56-1.14,1,.81,0,1.61-.87,1.9-.48-.43.34-.65.4-1.18.76,1-.48,1.95-1,1.85-.35-.27.18-.57.49-.64.39.57.44,2.94-.86,2.62.38-2,1.31-.44.69-2,2l.73-.07.67-.75c.2.3,1.55-.39,1.23.27l-.82.32.72.28L89,62c1-.38,2-1.66,1.84-.93-.22.06.21.29-.61,1.2h0c.62-.27,1.26-.56,1,0-.47.47-1.79,1.38-2.1,1.69,1.43-.94.89.36,2.45-.62a10.72,10.72,0,0,0-1.37,1l1.17-.76a3.17,3.17,0,0,1-1.08,1.08c.12.55,1.92-1.75,1.42-.59a2.22,2.22,0,0,1-.49.24c-.07.83,1.41.34,1.23,1.2-1.5,1.42-.7-.06-1.93,1.18.79.37,3-.28,3,.61l.09-.25c2.32-1.74-.76,1.34.54.78a6.66,6.66,0,0,0-1.06.74c0,.7,1.23.38,2.44.42L95,69.4c-.32.66.21.88.16,1.35.64-.39.67-.17,1.44-.94-2.67,3.46,3,.1.81,3-.07-.08-.67.21-.62.28l1,.17A6.81,6.81,0,0,0,99,72c.65-.39,1.24-.58,1.36-.43-.87.25-1.58,1.27-2,1.83.29-.26.65-.49.95-.75-1.5,1.73,2-1.54,1.19-.16l-.53.4c.39-.06,1.2-.46,1.19-.16-1.09,1-.67.25-1.62,1,.26.2,2.55-1.25,1.59-.11-.4.15-.53,0-.93.15-1.15,1.32-.78,1.07-.85,1.42v0L99,76l.28-.4c3.22-2.07,1,.19,3.32-1-2.17,1.07-1.12.78-2.44,1.78a3.75,3.75,0,0,1-1,1.12c1.2-.64-.56,1,1.19,0-.41.35.12.24-1,1,.53,0,.68-.64,1.22-1,1.74-.74-1,2.29,1.4,1.3,1.19-.16,2.67-1.18,3.74-1.28a4.41,4.41,0,0,1-1.63,1.08c-.42.73-.16.82.5.68a5.21,5.21,0,0,0-1.09,1c.26.1,1.63-1.08,1.2-.34-.5.32-1.29.85-1.83,1.13.56-.08,1.51-.48,2.07-.55a6.59,6.59,0,0,1-1.76,1,3.31,3.31,0,0,0,2.4-.69l.28-.49c.13,0-1,.83-1.22.93-1.08.49.16-.63.57-1l.39,0c2.34-2.1-.9-.35-1-.78l1.89-1.27-1.75.83a5.42,5.42,0,0,1,1.77-1.32c.7-.93-.8.29,0-.69a.82.82,0,0,1,.31-.23l-.71.19c.41-.25,1.23-1,1.09-.69.7-1.22-1.87.4-.64-.83l.14,0c-1-.09-1.35,1-3.23,1.77l3-2.84-1.35,1c0-.1,0-.29.55-.69-1.07.5-.54.49-1.49,1,1-1.23-1.17-.34.86-2.06-1.07.69-.55.88-1.48,1.13,2.17-1.87-.66,0,.16-1.12,1.22-.84.8-.11,1.63-1.18-2.08,1.4,0-.85-.52-.77-1.56,1.23-1,0-1.84.1.55-.4.31-1.37.6-2.16l.27-.2c-1.62,1.19-1.61.61-2.13.61a6.69,6.69,0,0,1,1.88-1.19l-.2-.23a2.14,2.14,0,0,1-1.18.47l1.22-.88c-.32-.26-1.89.47-1.44-.57-1.11.86-2.78,2.77-3.85,2.93a9.75,9.75,0,0,1,1.91-1.4c-.11,0-.6.26-.41,0l1.13-.62c.29-.54-.91.57-.93.34.84-.67.51-.59,1.19-1.11.12,0-.24.41.14.2a3,3,0,0,1,.93-1.47c-.46.4-1.13.91-1.34.88-.32-.27.93-.92,1.21-1.46-.65.4-.2-.29-1.47.71-.06-.09.51-.58.82-.89-.69.28-.78-.64-2,.62l-.06.11s0,0-.08,0h0c-1.68.47-.18-1.69-1.15-1.79l.42-.34c-.74.07-.86-.48-2,0-.07-.1.59-.84,1.13-1.21-.52,0-1,.37-.6-.54.93-.35.58-.61.74-.19.1-.61.72-1.22-.7-.63,1.17-.76,1.16-1.34.72-1.23l-.59.85c-.3,0-.32-.27-.35-.49L98.5,60c1.2-2-3.87,1.21-1.39-1.62-1.13.64-.41.92-1.69,1.7,0-.45,1.73-2.4,1.65-2.5.46-1-2.37,1.3-2.18.44a6.37,6.37,0,0,1-2.5,1.67c0-.45,1.82-2.08,2.38-2.22.1,0,0,.2-.21.34a1.57,1.57,0,0,0,1-.67l-.54.37c.4-.56,0-.93.91-1.5a1.34,1.34,0,0,0-1,1c.42-1-.46-.61-.28-1.4-.23.29-.78.83-.82.76.16-1.08-1.17.52-1.7.31.59-.84,1.9-1.41.94-1.28a3.93,3.93,0,0,1,1.78-1.37c-1.26.43.1-1.19.11-1.54l.56-.14c-.33.09-.4,0-.47-.11l-.92.93a.9.9,0,0,1,.43-.69,28.42,28.42,0,0,1-2.69,2c.39-.56-.92,0,.38-1.13-.08.83,1.3-1.15,1.84-.93-.22,0-.29,0-.2-.3a.9.9,0,0,1,.39-.24c.83-1.41-1.68,1-2,.54.8-.55,1.34-1.27,1.12-1.21.13.2-1.19,1.11-1.9,1.41.35-.77-.7,0-.76-.18l-.13.4c-.8.55-.82.33-1.23.31.58-.49.56-.14.76-.42-1.51.85,1-1.63-.2-1.22.39-.56,1.41-1.17,1.65-1.58-1.27.44.72-1.22-.39-.94a3.67,3.67,0,0,1-1.87,1.29l1.22,0-1.8.8c.14.2,1-.12.87.13a3.17,3.17,0,0,0-1.48,1.07c1.32-1.49-1.29.21-.5-.91l2.52-2c.76-1.35-1.93.26-1.76-.82l-.29.53c-1.06.73-.42-.24-1-.1a9.06,9.06,0,0,0,1.53-1.52c-.62.51-.29-.47-2,.83l.9-1.15c.08-.83-2.82,1.41-2.89.73,1-.6,1.45-1.28,2.35-1.51-.11-.16-.07-.42-.65.05.45-.51-1.47.5-.78-.28-.42.24-1.32.93-1.38.7a3.69,3.69,0,0,1,.41-.33c-.41.33-.77.19-1.59,1.09,2.26-2.57-1.22-1.13.71-3.34a3.38,3.38,0,0,1-1.42-.52c.26-.18.42-.34.37-.21.46-1-2.62,1.69-2.11.52,1.17-1.32.93-.34,1.33-.9,2.72-2.29-.83-.26.54-1.87l.23-.05c.37-.5,0-.43-.5-.32s-1.21.14-1.34-.23a2.54,2.54,0,0,0,.39-.37A5.12,5.12,0,0,1,78,40.8c1-1,.65-.37,1.47-1.62-.31-.06-1.41,1.89-2,1.83a21.76,21.76,0,0,1,1.35-3l.41.4c1-1.93-.53-.58-.52-1.11l.5-.74c-.79-.55-1.88,1.55-2.35.7l-.24.73c-1.25,1.86.29-1.57-.69-.25l.81-2.47c-.46.27-1.55,1.42-2,1.53A6.34,6.34,0,0,1,76.92,34c-.22-.32-.86-.84-1.32.3.15-.14.45-.62.42-.12-.87,1.64-1.4,2.32-1.74,1.83.62-2.61.41-3.3.11-3.92s-.66-1.14-.58-3.67c-.4.39-.69.13-1-.45s-.58-1.51-.92-2.24a1.37,1.37,0,0,0-.9.69c.45,4.53-.3.51-.1,5.47-.19.56-.27.56-.3.26a20,20,0,0,0-.84-2.1c-.29-1.17.14-1.32,0-2.37-.6.32-.4-1.72-.94-2.46.25,1.57,0,2.61-.38,2.4.26.5.5,1,.72,1.55-.24,1.66-.5.88-.82.17s-.67-1.4-.88.22l0-1.66c-.28,1.3-1.75,2-1.18,5.53a3.5,3.5,0,0,1-.54-1.75c-.59.39-.88,1.85-1.12,3s-.48,2-1.3,1.66L63,35.53c-.07.44.54,1.72-.15,1.25-.18-.3-.4-.78-.51-.73,0,.37.37,1.75-.16,1.63l-.36-1c-.83.13-.88,1-.69,2,.09.47.26.94.34,1.4a3.89,3.89,0,0,1,.25.94C60,39.37,59,39.31,58.45,39.27L58.2,39c-.85.48.37,2.55.42,3.84-2.26-1.43-2.07.58-3.73.17a5,5,0,0,1,1.38,1.61c-.5-.2.77,1.59-.77,0l.08,0c-1.64-1.42-1.53-.71-1.8-.52l2,2.08c-3.55-2.37-.55,2.71-3.51.34.35.66.16.84.51,1.5L51.7,46.91c-.69.11-1,.17-1.29.92l-.65-.9c-.36.2,2.69,3.6,2.47,3.92l-1.66-1.61c-.5.51-2.38-.5-1.48,1.51-.22-.26-.66-.76-.64-.91-.28.18-2-.31.22,2-1.39-1.53-.67.33-.35,1.27l-1-1.18c1,1.67,1.4,2.08,1.42,2.79-.21-.08-.88-.85-.52-.66-.79-.36.75,1.27-.12.95l-.52-.84c-.35.15,0,.52.61,1.51.23.62-.79.17-1.73-.83.52.66,1.1,1.65.67,1.49a3,3,0,0,1-.58-.82c-1.15-.38.46,1.95-.84,1.09a4.73,4.73,0,0,0-.64-.65c.39-.28.74-.48.79-.37-.92-1.07-1.37-1-2.4-2.68.45,1,1.54,3.11.81,2.85-.1-.09-.2-.18-.35-.34l-.07-.14c-.16,0-.14.1,0,.33-.24-.1-.41-.18-.51-.12-.79-.86-.75-.2-.94-.12,1,1.17.65,1.15,1.65,2-.1-.06-.09-.17,0-.3a.45.45,0,0,0,0-.17L44,57a3.09,3.09,0,0,1,.31-.39c.39.69.68,1.3,0,.79l1.38,2.08c-1.59-1.47-2.72-2-3.62-3,.1,1.06-.72,1.33.8,3.81.1.4-.67-.52-1-.83-.1-.29,0-.33-.2-.68.2.79-.61.86.59,2.48-.91-.44-1-1.6-1.23-1l-.32-.53c-2.9-1.81,1.69,5.22-1.88,2.76a2.09,2.09,0,0,1,.55.47c-2.27-.55-1.4,3.22-4.3,1.77-.68-.23,0,.83.42,1.78l-1-1.29.77,1.8c.31,1.5-3.23-2.66-2.32-.07l.73.85c-.35,0-.35,1-1.05,0,.09.18.59,1,.16.59l-.5-.7.29,1.61c-.8-.21-1.9-2.87-2.62-2.57a7.77,7.77,0,0,0,1.17,3c.12,0,.55.27,1.05,1l0,.53c1.4,2.12,2.7,4.4,4.27,5.48l-.5-1.56.83.93-.29.29c.85.83.38-.1.11-.77a4.92,4.92,0,0,0,.94,1l-1-2.26c.62.79,1,1.74,1.53,2-.47-1.05-1.45-1.71-1.58-2.52.85.82,1.34,1.63,1,.67a3.48,3.48,0,0,1,.69,1.18c-.26-.78.32-.63-.36-1.8,1,1,.42-.77,1.81,1.21a5.3,5.3,0,0,1-.65-2c1.37,2.58.76-.33,2.49,2.23-1.29-2.27.19-1.56-.25-3,.1.18.3.55.19.47.36,0,.89.58,1.34.86a15.66,15.66,0,0,1-1.78-3.62c1.53,1.44,1.34,2.15,2.62,3.67C42.49,72.21,43,71.83,42,70.74a9.74,9.74,0,0,1,1.75,1.69c-1.58-2.17-.07-.52-.88-2,1.11.82,1.6,1.94,1.45,1A3.25,3.25,0,0,1,45.29,73ZM50.5,62.88l0,0-.11.21S50.46,63,50.5,62.88Zm.64-.58a.78.78,0,0,0-.32.2c-.37-.38-.7-.82-.62-.85C50.4,62,50.75,62.05,51.14,62.3Zm-8.25-7c0-.25.19,0,.4.18a.62.62,0,0,0,0,.29l.11.15C43.17,55.71,43,55.49,42.89,55.32Z" transform="translate(-29.9 -25.24)"/>
<path d="M44,57s0,.1,0,.12.2.16.28.22L44,57Z" transform="translate(-29.9 -25.24)"/>
<path d="M99.49,66.44v0l-.15.17Z" transform="translate(-29.9 -25.24)"/>
<polygon points="32.1 31.15 31.83 30.87 32.01 31.17 32.1 31.15"/>
<path d="M98.29,73.38a1.82,1.82,0,0,0-.27.29A2,2,0,0,0,98.29,73.38Z" transform="translate(-29.9 -25.24)"/>
<path d="M99.28,75.16l-.25.56A2.58,2.58,0,0,0,99.28,75.16Z" transform="translate(-29.9 -25.24)"/>
<path d="M99.64,76.84l.54-.39h0Z" transform="translate(-29.9 -25.24)"/>
<path d="M82.81,58.87s0,0-.1,0C82.39,58.94,82.55,58.94,82.81,58.87Z" transform="translate(-29.9 -25.24)"/>
<path d="M90.21,62.29a5.69,5.69,0,0,1-.71.27C89.49,62.74,89.53,62.84,90.21,62.29Z" transform="translate(-29.9 -25.24)"/>
<path d="M76.21,53.66h0s0,0,0,0Z" transform="translate(-29.9 -25.24)"/>
<path d="M89.3,62.28c-.16.3,0,.34.2.28C89.51,62.42,89.55,62.22,89.3,62.28Z" transform="translate(-29.9 -25.24)"/>
<path d="M103.23,82.5v.1l.2-.15Z" transform="translate(-29.9 -25.24)"/>
<path d="M103.42,82.45l.2,0S103.56,82.36,103.42,82.45Z" transform="translate(-29.9 -25.24)"/>
<path d="M104,82.3l-.41.11S103.66,82.54,104,82.3Z" transform="translate(-29.9 -25.24)"/>
<path d="M102.53,80.46l-.45.33C102.18,80.73,102.32,80.62,102.53,80.46Z" transform="translate(-29.9 -25.24)"/>
<path d="M102,80.08c0,.19-.7,1-.3,1l.36-.26C101.37,81.23,102.85,79.61,102,80.08Z" transform="translate(-29.9 -25.24)"/>
<path d="M105.82,73.76l0,.69c.41-.44,1-1,1.22-.94C108,71.9,106.06,74.45,105.82,73.76Z" transform="translate(-29.9 -25.24)"/>
<path d="M105.48,72c.39.05.67-.54.94-.74A1.32,1.32,0,0,0,105.48,72Z" transform="translate(-29.9 -25.24)"/>
<path d="M98.14,62.83,99.25,62C99,61.93,98.83,62.31,98.14,62.83Z" transform="translate(-29.9 -25.24)"/>
<polygon points="61.21 40.4 60.67 41.11 61.73 40.38 61.21 40.4"/>
<polygon points="68.13 33.1 68.34 33.04 67.72 33.08 68.13 33.1"/>
<path d="M85.31,43.41,84,44.54C84.34,44.46,85.87,43.27,85.31,43.41Z" transform="translate(-29.9 -25.24)"/>
<path d="M77.41,36.32c.33-1,.33-1.87-.18-1.15C77.36,35.53,77.22,36.44,77.41,36.32Z" transform="translate(-29.9 -25.24)"/>
<polygon points="24.05 19.7 23.76 19.17 23.88 19.73 24.05 19.7"/></svg>